<svg version="1.1" xmlns="http://www.w3.org/2000/svg" viewBox="0 0 8648.316294352213 3873.5277777777746" width="8648.316294352213" height="3873.5277777777746">
  <!-- svg-source:excalidraw -->
  
  <defs>
    <style class="style-fonts">
      @font-face {
        font-family: "Virgil";
        src: url("https://excalidraw.com/Virgil.woff2");
      }
      @font-face {
        font-family: "Cascadia";
        src: url("https://excalidraw.com/Cascadia.woff2");
      }
    </style>
  </defs>
  <rect x="0" y="0" width="8648.316294352213" height="3873.5277777777746" fill="#f1f3f5"></rect><g transform="translate(3395.9073670402404 10) rotate(0 257.4599609375 51.42857142857139)"><text x="257.4599609375" y="0" font-family="Virgil, Segoe UI Emoji" font-size="27.428571428571406px" fill="#000000" text-anchor="middle" style="white-space: pre;" direction="ltr" dominant-baseline="text-before-edge">5 Princípios utilizados na POO </text><text x="257.4599609375" y="34.285714285714256" font-family="Virgil, Segoe UI Emoji" font-size="27.428571428571406px" fill="#000000" text-anchor="middle" style="white-space: pre;" direction="ltr" dominant-baseline="text-before-edge">Torna o processo de desenvolvimento </text><text x="257.4599609375" y="68.57142857142851" font-family="Virgil, Segoe UI Emoji" font-size="27.428571428571406px" fill="#000000" text-anchor="middle" style="white-space: pre;" direction="ltr" dominant-baseline="text-before-edge">mais simples de manter </text></g><g transform="translate(3054.2502906436007 185.7420634920636) rotate(0 54.515428815569294 112.07941529488016)"><text x="54.515428815569194" y="0" font-family="Virgil, Segoe UI Emoji" font-size="179.32706447180828px" fill="#087f5b" text-anchor="middle" style="white-space: pre;" direction="ltr" dominant-baseline="text-before-edge">S</text></g><g transform="translate(3296.886842636835 188.30550534004067) rotate(0 65.0931625366211 112.07941529488016)"><text x="65.0931625366211" y="0" font-family="Virgil, Segoe UI Emoji" font-size="179.32706447180828px" fill="#087f5b" text-anchor="middle" style="white-space: pre;" direction="ltr" dominant-baseline="text-before-edge">O</text></g><g transform="translate(3560.7736605689634 189.01979105432633) rotate(0 53.70634460449219 112.07941529488016)"><text x="53.70634460449219" y="0" font-family="Virgil, Segoe UI Emoji" font-size="179.32706447180828px" fill="#087f5b" text-anchor="middle" style="white-space: pre;" direction="ltr" dominant-baseline="text-before-edge">L</text></g><g transform="translate(3830.6153048560723 194.3769339114691) rotate(0 48.86470031738281 112.07941529488016)"><text x="48.86470031738281" y="0" font-family="Virgil, Segoe UI Emoji" font-size="179.32706447180828px" fill="#087f5b" text-anchor="middle" style="white-space: pre;" direction="ltr" dominant-baseline="text-before-edge">I</text></g><g transform="translate(4099.545198349724 199.37693391146922) rotate(0 69.93480682373047 112.07941529488016)"><text x="69.93480682373047" y="0" font-family="Virgil, Segoe UI Emoji" font-size="179.32706447180828px" fill="#087f5b" text-anchor="middle" style="white-space: pre;" direction="ltr" dominant-baseline="text-before-edge">D</text></g><g transform="translate(354.86328633626283 1431.4563492063494) rotate(0 246.47386169433594 22.5)"><text x="246.47386169433594" y="0" font-family="Virgil, Segoe UI Emoji" font-size="36px" fill="#0b7285" text-anchor="middle" style="white-space: pre;" direction="ltr" dominant-baseline="text-before-edge">Single Responsibility Principle</text></g><g transform="translate(2071.00059000651 1438.1230158730145) rotate(0 181.16989135742188 22.5)"><text x="181.16989135742188" y="0" font-family="Virgil, Segoe UI Emoji" font-size="36px" fill="#a61e4d" text-anchor="middle" style="white-space: pre;" direction="ltr" dominant-baseline="text-before-edge">Open-Closed Principle</text></g><g transform="translate(5748.569915771484 1516.456349206349) rotate(0 272.93389892578125 22.5)"><text x="272.93389892578125" y="0" font-family="Virgil, Segoe UI Emoji" font-size="36px" fill="#862e9c" text-anchor="middle" style="white-space: pre;" direction="ltr" dominant-baseline="text-before-edge">Interface Segregation Principle</text></g><g transform="translate(3892.020579020183 1479.789682539682) rotate(0 255.14990234375 22.5)"><text x="255.14990234375" y="0" font-family="Virgil, Segoe UI Emoji" font-size="36px" fill="#2b8a3e" text-anchor="middle" style="white-space: pre;" direction="ltr" dominant-baseline="text-before-edge">Liskov Substitution Principle </text></g><g transform="translate(7433.791961669922 1561.6018204660725) rotate(0 269.71185302734375 22.5)"><text x="269.71185302734375" y="0" font-family="Virgil, Segoe UI Emoji" font-size="36px" fill="#d9480f" text-anchor="middle" style="white-space: pre;" direction="ltr" dominant-baseline="text-before-edge">Dependency Inversion Principle </text></g><g transform="translate(51.70134480794309 2008.9563492063487) rotate(0 566.1358032226562 67.50000000000011)"><text x="566.1358032226562" y="0" font-family="Virgil, Segoe UI Emoji" font-size="36px" fill="#000000" text-anchor="middle" style="white-space: pre;" direction="ltr" dominant-baseline="text-before-edge">Uma classe deve ter apenas uma responsabilidade.</text><text x="566.1358032226562" y="45" font-family="Virgil, Segoe UI Emoji" font-size="36px" fill="#000000" text-anchor="middle" style="white-space: pre;" direction="ltr" dominant-baseline="text-before-edge">Para cada responsabilidade do sistema, devemos ter uma única</text><text x="566.1358032226562" y="90" font-family="Virgil, Segoe UI Emoji" font-size="36px" fill="#000000" text-anchor="middle" style="white-space: pre;" direction="ltr" dominant-baseline="text-before-edge">entidade que é especialista naquela responsabilidade </text></g><g stroke-linecap="round"><g transform="translate(607.6704813639326 1506.2896825396815) rotate(0 -5.954226199537352 220.2604004550965)"><path d="M0.35 0.62 C0.17 163.27, -5.56 328.85, -11.82 438.41 M-0.95 -0.02 C-6.2 130.88, -10.67 261.8, -12.26 440.54" stroke="#000000" stroke-width="2" fill="none"></path></g><g transform="translate(607.6704813639326 1506.2896825396815) rotate(0 -5.954226199537352 220.2604004550965)"><path d="M-21.41 413.44 C-16.03 421.92, -14.36 435.95, -10.45 437.36 M-24.02 412.17 C-19.11 421.21, -17.56 430.1, -11.32 441.62" stroke="#000000" stroke-width="2" fill="none"></path></g><g transform="translate(607.6704813639326 1506.2896825396815) rotate(0 -5.954226199537352 220.2604004550965)"><path d="M-0.89 413.74 C-3.15 421.82, -9.13 435.73, -10.45 437.36 M-3.5 412.46 C-4.68 421.24, -9.22 430.05, -11.32 441.62" stroke="#000000" stroke-width="2" fill="none"></path></g></g><mask></mask><g transform="translate(312.3333333333335 2745.123015873015) rotate(0 331.5058898925781 180)"><text x="0" y="0" font-family="Virgil, Segoe UI Emoji" font-size="36px" fill="#000000" text-anchor="start" style="white-space: pre;" direction="ltr" dominant-baseline="text-before-edge"></text><text x="0" y="45" font-family="Virgil, Segoe UI Emoji" font-size="36px" fill="#000000" text-anchor="start" style="white-space: pre;" direction="ltr" dominant-baseline="text-before-edge"></text><text x="0" y="90" font-family="Virgil, Segoe UI Emoji" font-size="36px" fill="#000000" text-anchor="start" style="white-space: pre;" direction="ltr" dominant-baseline="text-before-edge">* Reaproveitar o código </text><text x="0" y="135" font-family="Virgil, Segoe UI Emoji" font-size="36px" fill="#000000" text-anchor="start" style="white-space: pre;" direction="ltr" dominant-baseline="text-before-edge">* Refatorar o código</text><text x="0" y="180" font-family="Virgil, Segoe UI Emoji" font-size="36px" fill="#000000" text-anchor="start" style="white-space: pre;" direction="ltr" dominant-baseline="text-before-edge">* Melhorar os testes automatizados</text><text x="0" y="225" font-family="Virgil, Segoe UI Emoji" font-size="36px" fill="#000000" text-anchor="start" style="white-space: pre;" direction="ltr" dominant-baseline="text-before-edge">* Gerar menos bugs</text><text x="0" y="270" font-family="Virgil, Segoe UI Emoji" font-size="36px" fill="#000000" text-anchor="start" style="white-space: pre;" direction="ltr" dominant-baseline="text-before-edge">* Solucionar bugs mais facilmente   </text><text x="0" y="315" font-family="Virgil, Segoe UI Emoji" font-size="36px" fill="#000000" text-anchor="start" style="white-space: pre;" direction="ltr" dominant-baseline="text-before-edge"></text></g><g stroke-linecap="round"><g transform="translate(619.0572199669384 2211.623015873015) rotate(0 4.485018042475318 228.36444855241666)"><path d="M1.36 1.89 C2.45 170.63, 5.56 342.78, 9.86 457.41 M-0.89 -0.68 C2.94 134.18, 5.69 268.36, 9.86 455.06" stroke="#000000" stroke-width="2" fill="none"></path></g><g transform="translate(619.0572199669384 2211.623015873015) rotate(0 4.485018042475318 228.36444855241666)"><path d="M1.85 431.09 C1.65 434.98, 4.21 446.08, 9.18 458.74 M-2.9 425.68 C3.59 434.93, 6.27 442.76, 9.18 453.79" stroke="#000000" stroke-width="2" fill="none"></path></g><g transform="translate(619.0572199669384 2211.623015873015) rotate(0 4.485018042475318 228.36444855241666)"><path d="M22.36 430.64 C14.42 434.4, 9.24 445.67, 9.18 458.74 M17.62 425.22 C18.06 434.32, 14.68 442.28, 9.18 453.79" stroke="#000000" stroke-width="2" fill="none"></path></g></g><mask></mask><g transform="translate(315.3371480305991 2762.623015873015) rotate(0 437.0038146972656 22.5)"><text x="0" y="0" font-family="Virgil, Segoe UI Emoji" font-size="36px" fill="#0b7285" text-anchor="start" style="white-space: pre;" direction="ltr" dominant-baseline="text-before-edge">Com entidades independentes e isoladas podemos:</text></g><g stroke-linecap="round"><g transform="translate(606.337148030599 3127.2896825396815) rotate(0 2.1971687867387217 146.80350388431043)"><path d="M-2.87 -2.39 C0.41 89.23, 3.32 172.23, 6.55 294.18 M-0.22 0.86 C7.29 97.07, 7.58 192.18, 7.13 296" stroke="#000000" stroke-width="2" fill="none"></path></g><g transform="translate(606.337148030599 3127.2896825396815) rotate(0 2.1971687867387217 146.80350388431043)"><path d="M-6.99 264.58 C-2.8 279.17, 1.5 282.19, 6.97 294.89 M-3.42 268.96 C2.01 278.33, 2.81 286.15, 7.75 297.35" stroke="#000000" stroke-width="2" fill="none"></path></g><g transform="translate(606.337148030599 3127.2896825396815) rotate(0 2.1971687867387217 146.80350388431043)"><path d="M13.53 264.59 C11.68 279.49, 9.92 282.5, 6.97 294.89 M17.11 268.97 C15.84 277.99, 9.96 285.8, 7.75 297.35" stroke="#000000" stroke-width="2" fill="none"></path></g></g><mask></mask><g transform="translate(10 3474.4563492063485) rotate(0 616.4817504882812 22.5)"><text x="0" y="0" font-family="Virgil, Segoe UI Emoji" font-size="36px" fill="#0b7285" text-anchor="start" style="white-space: pre;" direction="ltr" dominant-baseline="text-before-edge">Tentar colocar as responsabilidades no nome do componente / classe</text></g><g transform="translate(1855.3371480306005 1530.3611111111086) rotate(0 413.225830078125 45)"><text x="413.225830078125" y="0" font-family="Virgil, Segoe UI Emoji" font-size="36px" fill="#000000" text-anchor="middle" style="white-space: pre;" direction="ltr" dominant-baseline="text-before-edge">Classes devem estar abertas para extensão </text><text x="413.225830078125" y="45" font-family="Virgil, Segoe UI Emoji" font-size="36px" fill="#000000" text-anchor="middle" style="white-space: pre;" direction="ltr" dominant-baseline="text-before-edge">e fechadas para modificação</text></g><g stroke-linecap="round"><g transform="translate(2244.003814697267 1667.0277777777742) rotate(0 7.285638283736034 151.8272184539993)"><path d="M-1.25 0.79 C7.16 84.22, 9.01 166.43, 16.02 303.36 M-1.45 0.29 C7.45 110, 12.83 217.69, 13.57 300.25" stroke="#000000" stroke-width="2" fill="none"></path></g><g transform="translate(2244.003814697267 1667.0277777777742) rotate(0 7.285638283736034 151.8272184539993)"><path d="M0.95 273.39 C7.73 279.95, 7.57 284.78, 14.97 302.57 M0.67 272.71 C7.89 284.03, 11.8 292.61, 11.62 298.31" stroke="#000000" stroke-width="2" fill="none"></path></g><g transform="translate(2244.003814697267 1667.0277777777742) rotate(0 7.285638283736034 151.8272184539993)"><path d="M21.46 272.91 C22.51 279.84, 16.62 284.81, 14.97 302.57 M21.18 272.23 C21.01 283.58, 17.52 292.33, 11.62 298.31" stroke="#000000" stroke-width="2" fill="none"></path></g></g><mask></mask><g transform="translate(1656.7480773925793 2005.3611111111086) rotate(0 617.2557373046876 22.5)"><text x="617.2557373046875" y="0" font-family="Virgil, Segoe UI Emoji" font-size="36px" fill="#000000" text-anchor="middle" style="white-space: pre;" direction="ltr" dominant-baseline="text-before-edge">Modificar responsabilidades sem comprometer as outras pode ser um </text></g><g transform="translate(2889.460512797039 2002.8611111111086) rotate(0 73.70996856689453 22.5)"><text x="73.70996856689453" y="0" font-family="Virgil, Segoe UI Emoji" font-size="36px" fill="#a61e4d" text-anchor="middle" style="white-space: pre;" direction="ltr" dominant-baseline="text-before-edge">problema</text></g><g stroke-linecap="round"><g transform="translate(2279.3371480306005 2101.0277777777746) rotate(0 3.819012340441418 124.46419417551374)"><path d="M-1.36 1.74 C1.94 49.26, 6.75 101.84, 7.22 248.92 M0.56 0 C6.13 88.7, 8.25 177.57, 9 248.64" stroke="#000000" stroke-width="2" fill="none"></path></g><g transform="translate(2279.3371480306005 2101.0277777777746) rotate(0 3.819012340441418 124.46419417551374)"><path d="M-3.38 222.75 C-1.99 224.65, 4.21 232.77, 8.65 247.33 M-1.04 220.63 C3.11 230.66, 6.25 240.92, 10.83 246.99" stroke="#000000" stroke-width="2" fill="none"></path></g><g transform="translate(2279.3371480306005 2101.0277777777746) rotate(0 3.819012340441418 124.46419417551374)"><path d="M17.14 222.42 C14.38 224.58, 16.43 232.76, 8.65 247.33 M19.48 220.3 C16.36 230.47, 12.23 240.84, 10.83 246.99" stroke="#000000" stroke-width="2" fill="none"></path></g></g><mask></mask><g transform="translate(1475.135426839194 2413.5277777777746) rotate(0 779.2017211914061 22.5)"><text x="779.2017211914062" y="0" font-family="Virgil, Segoe UI Emoji" font-size="36px" fill="#a61e4d" text-anchor="middle" style="white-space: pre;" direction="ltr" dominant-baseline="text-before-edge">O comportamento da classe só pode ser estendido se não comprometer o código fonte </text></g><g transform="translate(3664.8246561686233 1586.8611111111086) rotate(0 522.8458251953125 45)"><text x="522.8458251953125" y="0" font-family="Virgil, Segoe UI Emoji" font-size="36px" fill="#000000" text-anchor="middle" style="white-space: pre;" direction="ltr" dominant-baseline="text-before-edge"> Uma classe derivada deve ser substituível </text><text x="522.8458251953125" y="45" font-family="Virgil, Segoe UI Emoji" font-size="36px" fill="#000000" text-anchor="middle" style="white-space: pre;" direction="ltr" dominant-baseline="text-before-edge">por sua classe base sem afetar a corretude do programa</text></g><g stroke-linecap="round"><g transform="translate(4200.170481363935 1716.8611111111084) rotate(0 8.629688779734579 214.51563905604053)"><path d="M-1.36 -1.49 C7.07 106.34, 9.94 218.06, 18.62 428.84 M-0.86 -0.32 C7.03 141.29, 12.01 284.07, 18.2 430.52" stroke="#000000" stroke-width="2" fill="none"></path></g><g transform="translate(4200.170481363935 1716.8611111111084) rotate(0 8.629688779734579 214.51563905604053)"><path d="M4.16 399.89 C10.28 406.35, 10.18 420.35, 20.37 428.27 M5.12 402.16 C12.57 410.24, 14.78 420.5, 19.55 431.52" stroke="#000000" stroke-width="2" fill="none"></path></g><g transform="translate(4200.170481363935 1716.8611111111084) rotate(0 8.629688779734579 214.51563905604053)"><path d="M24.66 399.05 C25.64 405.77, 20.38 419.97, 20.37 428.27 M25.63 401.32 C26.29 409.98, 21.72 420.52, 19.55 431.52" stroke="#000000" stroke-width="2" fill="none"></path></g></g><mask></mask><g transform="translate(3826.1186014811233 2226.8611111111086) rotate(0 411.5518798828125 135)"><text x="411.5518798828125" y="0" font-family="Virgil, Segoe UI Emoji" font-size="36px" fill="#000000" text-anchor="middle" style="white-space: pre;" direction="ltr" dominant-baseline="text-before-edge">Se criarmos uma classe ave</text><text x="411.5518798828125" y="45" font-family="Virgil, Segoe UI Emoji" font-size="36px" fill="#000000" text-anchor="middle" style="white-space: pre;" direction="ltr" dominant-baseline="text-before-edge">podemos implementar dois métodos</text><text x="411.5518798828125" y="90" font-family="Virgil, Segoe UI Emoji" font-size="36px" fill="#000000" text-anchor="middle" style="white-space: pre;" direction="ltr" dominant-baseline="text-before-edge">bicar()</text><text x="411.5518798828125" y="135" font-family="Virgil, Segoe UI Emoji" font-size="36px" fill="#000000" text-anchor="middle" style="white-space: pre;" direction="ltr" dominant-baseline="text-before-edge">voar()</text><text x="411.5518798828125" y="180" font-family="Virgil, Segoe UI Emoji" font-size="36px" fill="#000000" text-anchor="middle" style="white-space: pre;" direction="ltr" dominant-baseline="text-before-edge">Assim quando criarmos uma sub-classe Corvo()</text><text x="411.5518798828125" y="225" font-family="Virgil, Segoe UI Emoji" font-size="36px" fill="#000000" text-anchor="middle" style="white-space: pre;" direction="ltr" dominant-baseline="text-before-edge"> Os dois métodos vão funcionar</text></g><g transform="translate(5262.478118896484 1596.8611111111086) rotate(0 802.0256958007812 45)"><text x="802.0256958007812" y="0" font-family="Virgil, Segoe UI Emoji" font-size="36px" fill="#000000" text-anchor="middle" style="white-space: pre;" direction="ltr" dominant-baseline="text-before-edge"> Uma classe não deve ser forçada a implementar interfaces e métodos</text><text x="802.0256958007812" y="45" font-family="Virgil, Segoe UI Emoji" font-size="36px" fill="#000000" text-anchor="middle" style="white-space: pre;" direction="ltr" dominant-baseline="text-before-edge"> que ela não usa.  As interfaces devem ser específicas para as necessidades da classe.</text></g><g transform="translate(544.1550525483646 1158.7816958162282) rotate(0 54.515428815569194 112.07941529488016)"><text x="54.515428815569194" y="0" font-family="Virgil, Segoe UI Emoji" font-size="179.32706447180828px" fill="#1864ab" text-anchor="middle" style="white-space: pre;" direction="ltr" dominant-baseline="text-before-edge">S</text></g><g transform="translate(2188.5773188273115 1133.781695816227) rotate(0 65.0931625366211 112.07941529488016)"><text x="65.0931625366211" y="0" font-family="Virgil, Segoe UI Emoji" font-size="179.32706447180828px" fill="#a61e4d" text-anchor="middle" style="white-space: pre;" direction="ltr" dominant-baseline="text-before-edge">O</text></g><g transform="translate(4083.2974700927757 1162.1150291495615) rotate(0 53.70634460449219 112.07941529488016)"><text x="53.70634460449219" y="0" font-family="Virgil, Segoe UI Emoji" font-size="179.32706447180828px" fill="#2b8a3e" text-anchor="middle" style="white-space: pre;" direction="ltr" dominant-baseline="text-before-edge">L</text></g><g transform="translate(5953.139114379885 1202.1150291495615) rotate(0 48.86470031738281 112.07941529488016)"><text x="48.86470031738281" y="0" font-family="Virgil, Segoe UI Emoji" font-size="179.32706447180828px" fill="#862e9c" text-anchor="middle" style="white-space: pre;" direction="ltr" dominant-baseline="text-before-edge">I</text></g><g transform="translate(7622.069007873537 1287.1150291495615) rotate(0 69.93480682373047 112.07941529488016)"><text x="69.93480682373047" y="0" font-family="Virgil, Segoe UI Emoji" font-size="179.32706447180828px" fill="#e67700" text-anchor="middle" style="white-space: pre;" direction="ltr" dominant-baseline="text-before-edge">D</text></g><g stroke-linecap="round"><g transform="translate(6013.670481363932 1755.0277777777746) rotate(0 4.231375668604869 217.41388813346532)"><path d="M0.45 1.32 C4.35 142.78, 8.47 285.61, 7.97 431.75 M0.57 0.78 C1.12 166.09, 4.7 332.49, 7.81 434.04" stroke="#000000" stroke-width="2" fill="none"></path></g><g transform="translate(6013.670481363932 1755.0277777777746) rotate(0 4.231375668604869 217.41388813346532)"><path d="M-2.31 408.72 C-2.92 414.16, 3.39 422.26, 7.11 430.95 M-2.08 407.67 C-0.3 416.78, 4.66 428.08, 6.8 435.44" stroke="#000000" stroke-width="2" fill="none"></path></g><g transform="translate(6013.670481363932 1755.0277777777746) rotate(0 4.231375668604869 217.41388813346532)"><path d="M18.21 408.18 C10.81 413.64, 10.33 421.92, 7.11 430.95 M18.44 407.13 C12.35 416.75, 9.44 428.25, 6.8 435.44" stroke="#000000" stroke-width="2" fill="none"></path></g></g><mask></mask><g transform="translate(5426.883351643881 2248.0277777777746) rotate(0 608.4537963867188 22.5)"><text x="608.4537963867188" y="0" font-family="Virgil, Segoe UI Emoji" font-size="36px" fill="#862e9c" text-anchor="middle" style="white-space: pre;" direction="ltr" dominant-baseline="text-before-edge">é melhor criar interfaces muito específicas do que ter uma genérica</text></g><g transform="translate(5839.653900146484 2586.0277777777756) rotate(0 212.84991455078125 157.5)"><text x="212.84991455078125" y="0" font-family="Virgil, Segoe UI Emoji" font-size="36px" fill="#c92a2a" text-anchor="middle" style="white-space: pre;" direction="ltr" dominant-baseline="text-before-edge">interface IRepository {</text><text x="212.84991455078125" y="45" font-family="Virgil, Segoe UI Emoji" font-size="36px" fill="#c92a2a" text-anchor="middle" style="white-space: pre;" direction="ltr" dominant-baseline="text-before-edge"></text><text x="212.84991455078125" y="90" font-family="Virgil, Segoe UI Emoji" font-size="36px" fill="#c92a2a" text-anchor="middle" style="white-space: pre;" direction="ltr" dominant-baseline="text-before-edge">void Save(object obj);</text><text x="212.84991455078125" y="135" font-family="Virgil, Segoe UI Emoji" font-size="36px" fill="#c92a2a" text-anchor="middle" style="white-space: pre;" direction="ltr" dominant-baseline="text-before-edge">void Update(object obj);</text><text x="212.84991455078125" y="180" font-family="Virgil, Segoe UI Emoji" font-size="36px" fill="#c92a2a" text-anchor="middle" style="white-space: pre;" direction="ltr" dominant-baseline="text-before-edge">void Delete(int id);</text><text x="212.84991455078125" y="225" font-family="Virgil, Segoe UI Emoji" font-size="36px" fill="#c92a2a" text-anchor="middle" style="white-space: pre;" direction="ltr" dominant-baseline="text-before-edge">void Search(int id);</text><text x="212.84991455078125" y="270" font-family="Virgil, Segoe UI Emoji" font-size="36px" fill="#c92a2a" text-anchor="middle" style="white-space: pre;" direction="ltr" dominant-baseline="text-before-edge"></text></g><g stroke-linecap="round"><g transform="translate(6032.503814697266 2341.861111111108) rotate(0 -0.0014415920077226474 60.824742028489936)"><path d="M-0.11 -0.14 C-1.1 33.39, 1.66 61.67, -1.52 121.15 M1.51 1.2 C-2.04 41.05, 0.22 83.15, 0.74 121.79" stroke="#000000" stroke-width="2" fill="none"></path></g><g transform="translate(6032.503814697266 2341.861111111108) rotate(0 -0.0014415920077226474 60.824742028489936)"><path d="M-10.21 93.68 C-8.43 102.62, -2.49 106.08, 0.19 122.94 M-8.58 95.02 C-7.29 103.24, -0.96 113.65, 2.45 123.58" stroke="#000000" stroke-width="2" fill="none"></path></g><g transform="translate(6032.503814697266 2341.861111111108) rotate(0 -0.0014415920077226474 60.824742028489936)"><path d="M10.31 93.25 C6.56 101.92, 6.97 105.5, 0.19 122.94 M11.93 94.59 C6.16 102.84, 5.42 113.39, 2.45 123.58" stroke="#000000" stroke-width="2" fill="none"></path></g></g><mask></mask><g transform="translate(5853.575820922853 2888.5277777777746) rotate(0 8.927993774414062 22.5)"><text x="8.927993774414062" y="0" font-family="Virgil, Segoe UI Emoji" font-size="36px" fill="#c92a2a" text-anchor="middle" style="white-space: pre;" direction="ltr" dominant-baseline="text-before-edge">}</text></g><g transform="translate(5836.185974121094 3055.1944444444407) rotate(0 366.3178405761719 45)"><text x="366.3178405761719" y="0" font-family="Virgil, Segoe UI Emoji" font-size="36px" fill="#0b7285" text-anchor="middle" style="white-space: pre;" direction="ltr" dominant-baseline="text-before-edge">interface IRepositorySQL : IRepository {</text><text x="366.3178405761719" y="45" font-family="Virgil, Segoe UI Emoji" font-size="36px" fill="#0b7285" text-anchor="middle" style="white-space: pre;" direction="ltr" dominant-baseline="text-before-edge">void clearCache();</text></g><g transform="translate(5843.575820922852 3168.5277777777746) rotate(0 8.927993774414062 22.5)"><text x="8.927993774414062" y="0" font-family="Virgil, Segoe UI Emoji" font-size="36px" fill="#0b7285" text-anchor="middle" style="white-space: pre;" direction="ltr" dominant-baseline="text-before-edge">}</text></g><g transform="translate(5296.776153564453 3728.5277777777746) rotate(0 865.7276611328125 67.5)"><text x="865.7276611328125" y="0" font-family="Virgil, Segoe UI Emoji" font-size="36px" fill="#000000" text-anchor="middle" style="white-space: pre;" direction="ltr" dominant-baseline="text-before-edge">temos a interface IRepositorio que define métodos genéricos para acessar um banco de dados. </text><text x="865.7276611328125" y="45" font-family="Virgil, Segoe UI Emoji" font-size="36px" fill="#000000" text-anchor="middle" style="white-space: pre;" direction="ltr" dominant-baseline="text-before-edge">Temos também as interfaces IRepositorioSQL e IRepositorioMongoDB, </text><text x="865.7276611328125" y="90" font-family="Virgil, Segoe UI Emoji" font-size="36px" fill="#000000" text-anchor="middle" style="white-space: pre;" direction="ltr" dominant-baseline="text-before-edge">que definem métodos específicos para esses tipos de bancos de dados. </text></g><g transform="translate(5819.445922851564 3292.6944444444425) rotate(0 383.0578918457031 45)"><text x="383.0578918457031" y="0" font-family="Virgil, Segoe UI Emoji" font-size="36px" fill="#087f5b" text-anchor="middle" style="white-space: pre;" direction="ltr" dominant-baseline="text-before-edge">interface IRepositoryMongo : IRepository {</text><text x="383.0578918457031" y="45" font-family="Virgil, Segoe UI Emoji" font-size="36px" fill="#087f5b" text-anchor="middle" style="white-space: pre;" direction="ltr" dominant-baseline="text-before-edge">void Dump();</text></g><g transform="translate(5843.575820922853 3406.0277777777765) rotate(0 8.927993774414062 22.5)"><text x="8.927993774414062" y="0" font-family="Virgil, Segoe UI Emoji" font-size="36px" fill="#087f5b" text-anchor="middle" style="white-space: pre;" direction="ltr" dominant-baseline="text-before-edge">}</text></g><g stroke-opacity="0.4" fill-opacity="0.4" stroke-linecap="round" transform="translate(5382.503814697267 2498.3693619361898) rotate(0 738.333333333333 523.4125412541255)"><path d="M0 0 C0 0, 0 0, 0 0 M0 0 C0 0, 0 0, 0 0 M1.34 13.68 C2.63 6.22, 9.81 1.76, 8.4 2.31 M-0.43 12.27 C4.85 7.59, 9.05 3.67, 11.34 -0.97 M-3.26 23.02 C5.75 14.83, 16.17 11.97, 23.12 -2.93 M1.01 22.95 C7.84 16.6, 14.97 7.7, 22.73 -1.17 M-2.95 36.78 C11.16 29.13, 16.74 18.33, 28.59 -3.17 M0.89 37.42 C7.97 27.38, 19.11 14.81, 32.16 -0.29 M1.05 49.18 C16.66 32.7, 27.85 15.26, 38.65 3.59 M-0.92 48.96 C11 36.2, 23.68 25.15, 41.45 -1.47 M1.54 60.33 C21.95 41.88, 38.08 16.26, 55.81 3.06 M0.55 62.95 C8.58 47.71, 19.85 38.62, 53.24 -1.82 M-1.9 75.89 C19.72 48.94, 48.01 18.87, 64.4 -0.5 M-1.11 74.83 C23.9 50.86, 43.97 25.64, 64.33 0.25 M-1.89 86.06 C26.35 51.33, 62.07 16.66, 72.34 1.95 M0.89 83.69 C28.49 55.3, 53.1 23.02, 74.79 -2.18 M1.91 100.55 C25.8 59.18, 55.48 27.34, 88.9 2.5 M-1.09 97.92 C30.01 60.99, 63.23 26.11, 85.07 0.44 M-0.88 107.9 C20.96 91.01, 45.97 63.91, 94.41 2.51 M-1.31 109.07 C22.73 79.37, 49.06 50, 97.16 -1.08 M-1.49 122.15 C31.36 83.94, 61.07 48.56, 106.06 -1.1 M0.53 121.26 C21.82 96.01, 44.7 71.88, 107.67 -1.75 M0.3 134.16 C35.39 86.25, 77.05 43.94, 114.95 3.12 M-0.98 133 C22.09 101.3, 48.99 75.64, 116.35 -0.78 M-2.67 146.56 C34.21 109.79, 69.31 62.23, 130.5 0.4 M-0.48 146.85 C37.22 102.06, 73.56 62.51, 125.79 0.27 M0.07 160.55 C40.29 117.46, 72.19 75.67, 138.15 -3.04 M-1.24 159.02 C54.91 97.06, 108.37 35.75, 138.51 -0.95 M1.01 168.66 C48.87 118.59, 92.38 69.03, 144.75 0.94 M-0.08 169.57 C43.77 115.85, 91.86 63.62, 149.18 1.31 M-2.47 181.6 C51.71 122.15, 99.33 62.8, 159.76 -1.34 M-0.66 182.55 C48.67 120.48, 101.72 61.29, 160.34 0.88 M0.23 192.75 C42.33 140.84, 90.08 86.07, 171.89 -1.73 M0.12 194.1 C39.89 152.91, 73.05 111.76, 168.8 1.53 M0.76 207.98 C50.92 146.5, 102.47 93.05, 178.32 3.21 M-0.9 207.38 C51.94 142.45, 105.29 82.42, 180 0.56 M-0.51 222.07 C44.22 168.67, 83.88 122.08, 190.79 2.62 M0.01 220.87 C64.19 142.41, 129.89 68.41, 189.38 -0.5 M2.14 230.96 C56.97 170.44, 110.87 108.08, 199.6 -1.49 M1.18 232.66 C63.2 154.8, 126.39 81.62, 202.21 1.16 M-0.3 242.77 C62.19 177.68, 121.76 114.26, 211.95 -0.36 M-0.79 242.49 C64.95 171.76, 128.3 97.86, 213.22 -1.14 M1.33 258.54 C61.82 184.32, 126.96 108.05, 223.37 0.34 M0.42 254.82 C71.3 174.88, 139.63 97.64, 222.57 0.11 M0.76 270.27 C73.14 183.93, 146.11 100.77, 231.18 -0.08 M1.19 268.79 C72.6 185.74, 145.06 100.86, 233.1 -1.1 M-0.71 279.69 C82.24 191.74, 159.66 104.11, 245.24 -1.68 M-0.27 280.53 C83.42 181.78, 168.2 85.01, 243.06 0.91 M-1.52 294.85 C80.37 201.2, 157.8 111.16, 253.39 1.97 M-1.07 293.19 C65.72 217.44, 132 143.41, 254.73 0.6 M2 302.58 C99.57 189.51, 198.74 79.31, 262.95 1.21 M0.24 304.38 C66.92 230.72, 131.67 156.52, 265.26 -0.35 M1.13 318.8 C96.85 207.36, 192.85 97.04, 276.19 0.65 M0.3 315.91 C63.17 248.84, 125.01 177.35, 274.76 -0.42 M-1.7 330.88 C79.64 241.74, 154.86 156.78, 288.09 0.94 M0.26 329.87 C98.57 217.26, 195.1 107.86, 286.27 0.14 M0.96 340.78 C68.67 264.13, 138.04 183.59, 296.63 0.68 M0.74 341.97 C99.85 223.1, 201.9 105.72, 297.87 0.1 M1.54 352.58 C75.09 269.47, 149.65 180.62, 306.7 -2 M-0.47 353.45 C95.38 243.75, 189.2 136.32, 307.99 -0.27 M-0.77 366.46 C94.27 257.63, 189.81 149.33, 318.66 -1.49 M-0.43 365.45 C127.53 221.86, 252.07 77.74, 317.63 -0.87 M1.12 378.09 C123.76 238.35, 245.62 99.38, 330.16 1.27 M0.56 378.54 C118.37 240.93, 235.13 105.56, 328.5 0.22 M-1.1 390.49 C119.28 245.07, 242.43 106.02, 340.72 -1.72 M-0.34 389.17 C125.33 248.76, 249.64 107.52, 340.21 -1.1 M-1.09 401.97 C105.56 283.3, 213.16 166.12, 351.01 1.27 M-0.81 401.94 C82.24 307.94, 165.71 212.07, 348.93 0.92 M-0.55 413.91 C146.41 249.67, 287.18 85.15, 360.05 1.09 M0.05 414.1 C110.43 290.4, 218.9 164.9, 359.79 -0.24 M0.4 426.58 C117.6 292.64, 236.04 153.11, 371.51 -1.25 M-0.21 426.82 C85.47 328.72, 168.34 233.46, 370.7 0.81 M0.09 440.21 C100.94 323.31, 199.67 209.23, 381.06 0.1 M0.54 439.34 C102.28 321.88, 204.83 201.94, 381.76 1.06 M1.18 451 C138.91 299.84, 274.2 140.54, 392.39 1.55 M0.15 450.82 C131.81 300.36, 262.52 150.67, 391.87 -0.18 M1.1 465 C135 304.28, 274.31 146.6, 401.94 0.49 M0.02 464.08 C151.91 285.77, 306.5 109.47, 402.39 0.66 M-1.56 474.75 C120.26 342.99, 236.02 208.17, 412.38 -0.57 M0.05 476.05 C129.29 330.53, 257.22 183.2, 412.82 0.58 M-0.49 489.13 C147.63 324.47, 289.58 157.6, 423.71 0.52 M0.1 487.94 C160.33 307.15, 317.5 127.08, 424.38 -0.05 M-0.87 499.85 C113.76 370.11, 229.76 233.94, 433.97 -0.01 M-0.2 499.93 C105.08 379.45, 205.86 262.3, 434.11 -0.37 M-0.09 511.9 C116.44 374.94, 239.18 236.5, 446.33 -1.28 M-0.09 512.25 C91.88 406.16, 188.2 294.7, 444.91 -0.23 M-0.44 525.39 C114.97 394.3, 229.46 265.53, 457 -0.12 M-0.95 524.17 C144.14 355.15, 293.35 184.68, 456.4 0.15 M0.45 537.85 C116.57 398.47, 238.38 258.66, 465.51 0.27 M-0.26 537.2 C152.42 362.43, 301.33 189.28, 466.92 0.47 M0.14 548.44 C180.97 332, 363.91 120.41, 475.45 0.8 M0.33 549.3 C158.28 366.38, 320.03 181.91, 477.27 -0.8 M1.05 559.65 C180.42 359.13, 357.51 156.15, 488.72 1 M-0.41 560.71 C163.65 373.92, 326.1 187.94, 487.86 0.25 M0.84 572.53 C129.3 419.31, 263.4 268.21, 499.86 -0.1 M-0.31 573.53 C174.67 373.41, 348.58 174.51, 497.63 0.54 M-1.01 584.59 C171.59 385.67, 343 185.95, 509.56 0.18 M-0.35 585.78 C166.69 393.16, 333.17 200.43, 509.29 -0.02 M-0.04 598.42 C141.94 431.71, 289.16 264.44, 518.92 -0.61 M-0.09 597.94 C201 369.99, 398.49 142.73, 520.13 0.19 M0.48 609.96 C140.01 443.77, 278.88 281.47, 530.2 0.53 M0.55 610.22 C110.76 478.61, 224.97 347.05, 530.53 0.03 M-0.77 622.99 C127.13 474.13, 254.84 326.26, 541.07 0.11 M-0.47 622.13 C212.09 377.94, 422.42 135.48, 541.13 -0.78 M0.04 634.74 C181.97 417.29, 368.46 201.15, 551.75 -1.36 M0.45 635.13 C193.7 414.5, 384.62 195.61, 551.79 0.22 M-0.72 646.59 C210.03 408.42, 416.51 169.56, 562.48 -1.64 M-0.37 646.79 C149.63 481.78, 296.7 312.09, 561.92 -0.98 M-1.43 659.9 C149.34 482.56, 297.62 311.39, 574.27 0.93 M0.24 658.86 C168.19 460.83, 337.82 265.21, 572.62 -0.13 M1.71 670.71 C183.72 462.32, 367.78 248.56, 582.45 -0.54 M-0.63 669.81 C128.41 523.58, 257.89 374.5, 583.25 0.38 M-1.26 684.16 C160.61 501.96, 318.49 319.4, 592.91 -1.18 M0.59 682.33 C161.37 491.74, 327.08 300.1, 592.86 0.1 M1.2 696.96 C198.06 464.92, 403.85 228.83, 602.77 1.88 M-0.6 694.8 C136.24 542.97, 271.14 387.8, 603.17 0.52 M0.6 708.07 C175.45 496.98, 354.62 291.06, 613.36 0.94 M-0.93 706.69 C213.35 462.73, 428.72 216.05, 615.2 0.86 M0.43 720.94 C194.99 497.6, 383.94 282.95, 623.82 -1.36 M0.75 720.18 C226.59 459.56, 450.51 200.29, 625.89 0.77 M0.28 731.77 C249.17 443.87, 500.66 154.97, 635.06 -0.78 M0.16 731.13 C244.17 446.34, 489.51 162.66, 636.52 0.64 M-0.94 743.98 C191.97 517.77, 389.93 292.94, 647.19 -0.16 M0.18 742.96 C168.47 556.42, 335.38 365.94, 646.79 0.4 M-1.74 757.07 C223.86 501.14, 445.73 241.56, 657.08 1.07 M-0.56 756.54 C201.54 516.61, 406.45 279.23, 656.86 -0.16 M-1.11 767.67 C162.88 579.09, 323.73 390.84, 668.61 1.42 M0.19 769.18 C180.15 557.47, 362.55 346.43, 667.8 0.57 M1.4 781.41 C150.62 599.54, 302.6 422.52, 677.43 1.39 M0.03 781.05 C181.31 560.76, 368.58 346.81, 678.81 -0.05 M-0.56 791.57 C168.33 602.05, 337.92 406.53, 687.58 1.2 M-0.24 792.52 C208.07 547.96, 419.9 304.82, 689.34 -0.51 M-0.88 803.15 C168.56 607.76, 343.51 406.61, 699.46 -1.51 M0.01 803.72 C181.26 593.96, 365.42 383.25, 699.47 0.32 M-0.22 818.52 C175.6 619.13, 344.5 421.56, 710.52 -1.19 M-0.61 817.15 C266.1 505.95, 537.92 191.04, 710.39 0.44 M0.6 828.9 C232.25 553.68, 469.91 279.47, 722.31 0.54 M-0.81 828.71 C211.63 583.49, 424.93 336.92, 721.65 -0.21 M0.51 842.18 C288.48 516.81, 570.85 192.25, 731.63 -1.03 M-0.1 842.09 C196.25 621.59, 391.36 397.62, 731.62 0.61 M1.54 852.03 C221.63 600.24, 446.6 340.77, 740.81 -0.02 M-0.53 853.37 C170.81 649.41, 344 449.77, 742.71 -0.16 M-0.76 865.14 C186.61 652.33, 369.64 437.94, 752.04 -1.39 M-0.5 864.9 C195.97 639.17, 389.27 417.16, 752.26 -0.97 M-1.23 877.23 C238.25 594.91, 479.6 317.63, 764.8 -0.92 M0.25 878.37 C267.59 560.89, 544.32 243.87, 764.13 -0.12 M-1.06 890.22 C152.78 714.46, 312.01 530.39, 773.43 -0.25 M0.5 890.6 C295.55 548.31, 590.68 208.79, 773.23 -0.18 M-1.32 901.57 C185.14 687.25, 376.45 471.05, 783.82 0.37 M0.48 901.6 C155.67 718.78, 314.81 535.83, 785.11 0.35 M0.27 915.04 C203.37 671.45, 408.32 437.19, 794.86 -0.17 M0.12 915.06 C169.32 716.81, 336.21 526.02, 795.61 -0.62 M-0.14 926.27 C202.75 687.3, 404.87 456.66, 805.59 0.22 M0.47 926.72 C257.97 626.33, 516.2 330.68, 805.76 -0.41 M0.24 940.48 C175.8 734.24, 357.32 523.78, 815.23 -1.09 M0.27 939.81 C204.08 709.62, 401.57 482.84, 815.12 -0.07 M1.43 951.17 C202.08 710.34, 407.09 470.88, 826.51 -0.79 M0.65 951.24 C249.15 658.38, 500.71 368.72, 826.49 0.95 M0.62 964.67 C272.86 643.35, 547.33 327.13, 836.02 -0.17 M0.01 962.84 C253.78 657.38, 515.09 357.31, 837.59 0.1 M-1.35 975.72 C214.6 741.45, 423.95 504.35, 847.12 -0.89 M0.34 975.51 C321.4 607.92, 645.59 236.35, 847.38 0.21 M0.15 988.23 C196.8 775.09, 385.53 557.02, 857.23 -0.06 M0.56 987.1 C335.04 597.04, 671.65 209.92, 859 -0.54 M0.69 1001.03 C319.54 625.79, 637.8 257.16, 868.11 1 M-0.43 999.95 C195.41 785.36, 383.74 568.47, 869.08 -0.32 M-0.24 1012.05 C315.44 649.35, 630.56 287.17, 880.12 0.9 M-0.73 1011.79 C339.41 620.98, 677.04 232.79, 879.32 0.31 M0.7 1023.84 C231.11 761.15, 465.82 493.46, 889.8 -0.95 M-0.49 1023.84 C266.12 715.14, 536.56 405.23, 890.61 0.39 M1.26 1034.98 C198.97 811, 396.89 583.97, 900.07 -0.2 M-0.43 1036.53 C287.14 698.88, 578.63 362.4, 900.23 0.42 M0.67 1047.45 C257.89 743.59, 518.05 445.16, 911.44 0.5 M0.16 1048.26 C345.38 660.64, 684.51 270.95, 911.92 -0.36 M11.41 1048.79 C282.01 745.27, 551.13 439.13, 922.62 -1.19 M11.81 1048.26 C361.49 637.66, 715.98 229.56, 921.94 -0.57 M22.81 1047.97 C311.47 721.09, 594.4 392.75, 931.25 0.01 M22.9 1047.1 C377.5 645.19, 731.11 239.02, 932.29 0.61 M33.72 1046.25 C300.33 746.24, 568.03 437.86, 944.24 -1.29 M32.25 1046.96 C285.15 753.96, 544.37 456.31, 943.2 0.46 M43.47 1046.2 C348.91 699.57, 653.17 348.19, 952.8 -1.09 M42.85 1046.98 C368.23 677.09, 687.51 309.73, 953.52 -0.43 M55.69 1046.21 C358.2 698.25, 668.48 340.64, 965.19 -1.04 M54.36 1046.72 C290.27 791.68, 520.07 527.05, 964.46 0.51 M66.29 1047.79 C306.62 764.7, 545.08 489.67, 975.39 -1.21 M65.15 1046.59 C328.18 747.28, 595.63 439.48, 975.14 0.23 M76.85 1046.85 C414.07 651.96, 755.91 261.9, 986.24 0.86 M75.95 1046.55 C323.92 768.08, 565.28 490.28, 986.31 0.03 M85.85 1047.44 C362.63 714.33, 648.26 388.14, 997.28 -1.75 M85.5 1048.1 C339.17 755.03, 597.54 457.83, 995.99 -0.58 M95.66 1046.59 C404.77 682.01, 721.56 318.88, 1008.73 1.16 M97.39 1046.58 C304.19 800.85, 519 554.89, 1007.87 -0.23 M106.24 1048.85 C311.27 817.89, 514.64 585.38, 1018.9 -0.61 M107.06 1048.31 C306.16 808.73, 510.17 572.74, 1017.44 -0.19 M118.47 1048.07 C328.81 810.12, 537.51 570.53, 1028.15 -1.54 M117.68 1048.73 C304.91 823.22, 494.5 605.13, 1028.38 -0.84 M127.66 1048.92 C355.37 793.82, 581.73 534.09, 1039.59 -1.88 M127.07 1048.43 C353.9 788.29, 582.42 524.3, 1038.61 0.34 M139.75 1048.7 C336.96 822.21, 528.67 600.44, 1049.48 0.37 M138.74 1047.34 C467.46 662.67, 796.81 283.44, 1049.73 0.24 M148.89 1048.65 C471.86 667.73, 797.61 293.42, 1060.21 0.98 M148.94 1047.41 C462.55 695.08, 768.82 341.68, 1060.46 0.22 M160.56 1048.4 C421.48 740.66, 686.47 435.17, 1070.62 1.28 M159.85 1048.12 C347.91 831.67, 539.53 612.71, 1071.14 -0.14 M169.91 1046.94 C387.38 807.97, 599.94 564.26, 1082.54 -0.32 M170.46 1048.5 C436.97 753.95, 697.4 454.56, 1080.45 0.64 M181.57 1046.62 C445.19 745.24, 705.94 444.48, 1091.25 -0.31 M180.24 1047.45 C547.79 632.68, 910.17 215.79, 1091.56 0.64 M191.25 1047.74 C440.31 760.08, 694.04 467.65, 1102.14 1.25 M191.15 1047.27 C501.85 694.24, 810.2 340.31, 1103 -0.27 M202.38 1046.21 C421.15 809.02, 630.52 566.99, 1112.25 1.6 M201.7 1047.63 C479.98 725.49, 760.81 402.48, 1112.32 -0.12 M214.02 1047.26 C394.31 829.11, 585.89 612.07, 1123.76 -0.58 M212.23 1047.52 C552.26 659.92, 886.11 276.1, 1122.91 0.74 M224.76 1047.12 C563.63 661.25, 902.76 270.03, 1135.07 -1.13 M223.73 1047.21 C457.28 772.7, 695.13 499.4, 1134.89 -0.02 M233.43 1046.74 C463.12 790.51, 689.87 528.23, 1144.72 0.96 M233.48 1046.96 C492.27 753.42, 748.31 459.19, 1145.51 0.02 M246.21 1046.31 C592.33 653.12, 933.73 259.82, 1155.29 1.2 M245.14 1047.41 C520.74 724.32, 797.56 407.61, 1156.05 0.41 M254.89 1046.09 C576.38 676.17, 901.33 306.01, 1164.48 0.11 M254.78 1046.74 C460.92 806.77, 665.97 570.11, 1165.85 -0.24 M266.41 1047.4 C549.64 718, 843.64 384.59, 1175.44 0.93 M265.7 1047.35 C461.92 809.55, 663.56 578.45, 1175.93 -0.7 M277.93 1047.06 C627.35 646.02, 975.17 243.71, 1187.85 0.93 M276.14 1046.71 C618.19 659.16, 959.71 266.14, 1187.9 0.04 M287.15 1047.89 C560.06 734.03, 834.66 419.34, 1198.61 -1.33 M287.68 1047.21 C596.13 694.02, 899.77 343.88, 1197.95 -0.11 M299.42 1046.84 C586.24 712.04, 872.57 381.72, 1208.99 1.35 M297.71 1046.99 C601.84 681.71, 913.65 323.39, 1208.56 0.43 M309.21 1048.68 C521.19 811.34, 728.58 572.24, 1218.85 0.07 M307.88 1046.64 C576.3 738.37, 845.08 428.95, 1219.28 -0.74 M320.02 1047.69 C542.61 790.12, 764.91 535.28, 1230.61 -0.45 M319.74 1047.97 C667.2 654.9, 1007.96 262.03, 1230.46 -0.05 M329.09 1047.76 C544.63 811.32, 755.89 572, 1240.33 -0.17 M330.41 1047.97 C594.25 739.64, 861.52 431.35, 1240.42 -0.42 M340.25 1048.06 C681.78 645.5, 1026.5 252.3, 1251.18 0.36 M340.37 1047.88 C655.63 687.1, 975.34 320.02, 1250.75 0.3 M351.21 1047.31 C568.03 787.42, 794.24 527.6, 1261.39 0.9 M350.09 1047.36 C579.89 787.64, 809.87 521.96, 1261.96 0.09 M359.95 1049.2 C585.04 790.45, 805.17 537.66, 1271.31 -0.76 M361.42 1047.75 C704.66 648.69, 1054.99 245.42, 1272.3 -0.52 M371.27 1047.49 C595.79 794.62, 815.97 541.86, 1283.47 -0.77 M370.99 1047.79 C587.21 811.49, 795.9 570.2, 1282.39 1.07 M380.77 1046.86 C640.43 757.53, 891.73 464.36, 1293.1 -0.92 M382.87 1047.95 C585.37 810.54, 791.09 573.35, 1293.47 0.48 M391.6 1047.79 C741.46 641.98, 1085.57 243.16, 1304.1 -0.03 M392.96 1047.56 C589.93 822.54, 783.96 599.33, 1303.9 0.8 M402.34 1047.48 C631.46 797.78, 850.84 545.63, 1313.18 0.75 M403.89 1048.38 C637.34 772.05, 875.42 498.22, 1313.87 0.34 M414.1 1047.17 C641.63 776.5, 875.29 505.85, 1325.84 -0.42 M414.23 1048.51 C714.86 705.32, 1017.16 358.56, 1325.2 0.11 M424.83 1046.58 C605.98 831.21, 790.49 619.1, 1334.75 1.23 M425.36 1047.6 C695.56 725.47, 973.69 406.32, 1335.32 -0.59 M436.43 1048.07 C683 756.65, 932.85 469.22, 1346 -1.21 M435.54 1047.14 C651.82 795.76, 872.2 543.27, 1345.81 0.93 M445.8 1047.91 C768.8 673.38, 1089.12 304.63, 1357.42 0.18 M446.7 1047.66 C631.35 822.83, 823.5 600.23, 1356.39 -0.03 M455.21 1046.77 C697.88 785.21, 930.56 517.79, 1368.88 0.22 M456.97 1047.44 C770.16 693.8, 1081.23 334.81, 1366.98 0.69 M466.53 1047.45 C824.27 639.96, 1185.2 224.82, 1376.56 0.75 M467.45 1047.68 C701.19 773.57, 943.97 495.31, 1378.17 0.57 M478.79 1046.18 C689.41 796.99, 903.18 550.25, 1389.71 -1.29 M477.92 1048.05 C799.96 671.87, 1127.03 296.23, 1388.46 0.28 M488.85 1046.27 C805.35 685.99, 1118.83 325.38, 1399.28 -0.1 M488.86 1047.04 C838.25 638.68, 1192.36 231.06, 1399.49 -0.74 M498.49 1046.28 C732.5 770.28, 969.85 497.21, 1410.68 0.57 M498.72 1047.11 C823.31 670.86, 1148.05 296.79, 1410.14 -0.73 M508.75 1047.27 C821.17 694.59, 1129.19 338.19, 1422.04 1.25 M509.13 1047.02 C811.3 697.42, 1119.5 341.16, 1420.11 -0.07 M520.57 1047.3 C708.71 829.45, 893.24 614.09, 1431.33 1.15 M520.62 1047.03 C831.04 694.98, 1134.12 345.04, 1430.43 -0.9 M532.36 1048.78 C739.96 807.14, 944.37 572.09, 1440.25 -0.9 M531.37 1047.57 C812.6 731.37, 1088.09 413.78, 1442.29 -0.43 M540.65 1046.52 C855.75 686.05, 1172.28 319.3, 1451.74 0.84 M540.98 1048.08 C748.21 813.34, 948.77 583.94, 1452.68 -0.12 M553.58 1047.83 C890.34 659.54, 1227.21 272.71, 1464.27 0.75 M552.42 1047.3 C838.12 722.42, 1116.08 402.12, 1462.84 -0.57 M562.87 1047.86 C916.81 633.05, 1271.2 226.42, 1472.55 -1.3 M562.92 1046.82 C826.38 758.75, 1082.47 464.28, 1473.94 0.42 M572.59 1047.21 C805.14 785.61, 1037.16 515.55, 1480.94 4.77 M573.38 1047.45 C754.99 828.42, 942.03 613.43, 1481.01 4.02 M583.31 1046.65 C798.9 803.17, 1016.06 552.21, 1481.17 14.68 M583.4 1048.05 C878.91 711.47, 1168.1 379.36, 1480.83 15.63 M595.28 1049.31 C843.64 758.55, 1094.52 469.16, 1480.22 26.73 M594.25 1047.29 C864.06 743.8, 1127.92 441.55, 1480.34 27.69 M605.33 1049 C817.68 805.84, 1026.07 567.18, 1482.04 41.53 M605.49 1047.34 C839.92 770.75, 1080.22 494.6, 1481.36 39.67 M616.53 1047.84 C929.48 695.34, 1238.92 340.18, 1481.96 52.82 M614.8 1048.61 C887.19 738.92, 1152.65 434.42, 1481.06 53.05 M626.09 1047.56 C907.89 737.97, 1180.84 422.05, 1479.58 64.45 M626.4 1048.45 C809.28 846.73, 986.68 641.79, 1481.5 63.92 M635.64 1047.2 C898.25 750.07, 1158.76 446.19, 1482.05 76.13 M637.15 1047.94 C966.18 658.94, 1299.55 274.19, 1481.39 76.81 M648.75 1047.23 C863.3 810.09, 1074.25 568.08, 1481.71 88.2 M648.13 1047.42 C924.94 732.31, 1197.3 417.67, 1480.7 89.81 M658.83 1047.24 C895.46 775.22, 1131.46 505.23, 1481.77 102.78 M658.77 1048.46 C955.12 712.5, 1250.34 372.5, 1480.51 101.55 M669.02 1046.81 C843.65 858.81, 1010.34 665.29, 1480.32 113.16 M668.82 1047.79 C976.99 696.56, 1278.51 350.11, 1481.16 112.79 M680.09 1046.46 C954.23 726.8, 1228.38 412.44, 1480.07 124.09 M678.85 1047.25 C869.69 840.08, 1051.88 628.72, 1480.48 125.46 M691.16 1048.51 C990.81 701.86, 1292.93 356.87, 1481.91 137.44 M690.7 1047.76 C851.91 859.85, 1020.23 668.66, 1481.63 137.26 M700.37 1048.41 C890.31 821.12, 1090.19 596.49, 1481.86 150.65 M699.91 1048.05 C911.92 803.55, 1122.42 562.8, 1480.07 150.84 M711.99 1048.41 C999.35 710.48, 1291.48 377.49, 1480.7 161.01 M710.56 1048.21 C903.36 818.58, 1099.42 592.38, 1481.01 161.49 M721.14 1048.9 C957.67 778.73, 1195.84 502.71, 1480.81 174.27 M721.37 1046.87 C1011.08 716.59, 1299.33 385.19, 1481.58 174.84 M733.67 1046.04 C895.67 856, 1060.41 663.23, 1479.84 186.59 M732.49 1047.91 C918.2 836.53, 1101.07 627.36, 1480.26 186.56 M744.45 1048.76 C984.96 775.61, 1227.52 496.07, 1480.38 198.89 M742.81 1048.02 C954.04 797.95, 1169.06 549.92, 1481.49 197.93 M754.11 1047.58 C1018.52 753.92, 1277.08 454.83, 1480.41 212.2 M753.53 1046.67 C937.19 839.7, 1119.8 628.76, 1481.06 210.46 M763.28 1047.52 C918.46 867.22, 1073.17 689.17, 1479.78 222.28 M763.9 1048.05 C1038.87 738.03, 1308.84 428.15, 1480.39 223.29 M776.56 1046.64 C942.24 861.93, 1105.39 674.94, 1480.24 234.68 M774.82 1047.01 C984.46 810.21, 1191.88 573.44, 1481.44 234.81 M787.17 1046.5 C940.6 873.89, 1091.5 697.17, 1482.32 246.61 M786.07 1047.01 C953.14 853.45, 1116.77 665.72, 1481.77 248.07 M796.85 1046.7 C1018.16 793.52, 1238.57 538.33, 1482.18 258.19 M796.83 1047.7 C1001.61 803.37, 1212.78 562.27, 1480.77 259 M806.35 1046.48 C1001.14 824.28, 1194.6 602.26, 1481.27 270.91 M807 1047.58 C1011.69 814.95, 1217.85 578.21, 1481.02 271.95 M815.48 1049.05 C1021.62 809.05, 1225.7 571.75, 1480.01 285.53 M817.12 1047.76 C1072.51 755.27, 1323.07 467.94, 1480.17 284.26 M826.36 1047.79 C1020.11 830.35, 1209.03 610.99, 1481.03 294.66 M828.06 1047.24 C989.31 856.16, 1156.28 663.98, 1480.27 295.85 M837.07 1046.55 C1031 823.67, 1220.51 607.83, 1479.62 309.49 M837.71 1048.21 C1038.72 813.02, 1239.62 582.21, 1481.23 308.25 M848.14 1048.49 C981.2 892.78, 1113.93 739.43, 1479.82 319.82 M848.77 1047.6 C1100.43 764.71, 1348.68 479.65, 1480.61 320.83 M860.03 1047.38 C988.81 902.02, 1112.69 759.38, 1481.64 334.13 M859.61 1048.61 C1017.36 855.15, 1180.74 667.2, 1481.45 333.54 M870.63 1047.72 C1088.87 803.58, 1304.91 554.15, 1481.19 345.44 M869.47 1048.23 C1026.26 871.33, 1183.75 692.42, 1480.88 345.83 M879.17 1046.42 C1091.56 802.68, 1304.61 558.27, 1480.26 355.96 M880.58 1047.24 C1069.02 837.21, 1256.02 621.9, 1481.09 356.73 M890.1 1046.5 C1088.23 818.7, 1281.65 596.26, 1480.02 368.53 M890.57 1047.33 C1019.8 897.08, 1149.78 747.16, 1481.18 368.58 M901.04 1048.39 C1084.5 842.77, 1262.59 636.27, 1480.42 382.71 M902.53 1048.25 C1058.33 869.76, 1215.24 688.55, 1481.09 382.51 M913.01 1047.66 C1070.25 867.63, 1229.08 688.94, 1480.3 392.58 M912.66 1048.19 C1074.51 851.85, 1242.28 659.81, 1479.92 394.14 M921.57 1048.67 C1049.85 899.28, 1174.04 756.24, 1480.6 404.99 M923.49 1047.28 C1085.9 858.27, 1250.94 666.92, 1480.36 406.46 M933.53 1046.31 C1058.45 902.94, 1184.15 757.87, 1481.22 418.29 M933.2 1047.99 C1110.6 842.24, 1285.69 641.67, 1480.66 417.59 M945.22 1046.09 C1095.34 873.67, 1247.29 698.25, 1481.1 430.31 M944 1047.44 C1094.33 876.48, 1241.03 708.37, 1480.75 429.86 M956 1049.01 C1139.88 830.79, 1333.78 609.89, 1481.46 443.26 M954.62 1047.37 C1152.07 825.42, 1349.67 597.52, 1480.47 442.93 M965.79 1046.11 C1106.84 876.83, 1253.92 711.47, 1479.54 455.21 M965.55 1048.09 C1076.34 921.46, 1186.94 794.29, 1481.05 454.3 M975.71 1048.15 C1151.3 842.41, 1326.78 637.83, 1481.31 465.5 M976.26 1047.24 C1165.82 830.5, 1353.55 615.57, 1481.57 467.41 M985.65 1048.07 C1096.46 919.5, 1208.22 787.45, 1482.47 479.04 M987.32 1048.11 C1127.47 889.97, 1265.31 731.54, 1480.52 479.35 M998.1 1047.57 C1188.2 829.93, 1373.82 616.37, 1481.22 491.94 M997.58 1047.21 C1121.22 906.81, 1244.87 763.77, 1480.32 491.6 M1009.31 1048.35 C1177.94 856.13, 1343.94 666.84, 1481.56 502.81 M1007.85 1047.41 C1172.96 853.78, 1340.79 659.88, 1480.75 504.7 M1019.55 1046.6 C1195.11 844.83, 1369.09 644.93, 1480.59 516.97 M1018.16 1047.13 C1114.71 935.08, 1210.49 825.05, 1480.41 515.58 M1030.63 1046.76 C1156.35 892.63, 1286.3 742.55, 1481.27 529.56 M1029.78 1047.02 C1148.4 911.35, 1266.61 773.58, 1481.25 527.27 M1039.54 1047.12 C1193.2 868.61, 1347.9 692.3, 1479.75 539.35 M1038.66 1047.91 C1144.49 925.99, 1250.47 804.4, 1480.43 539.8 M1051.37 1047.34 C1178.97 898.56, 1308.71 746.38, 1481.42 553.64 M1049.64 1048.15 C1203.3 867.74, 1358.49 686.62, 1481.32 551.34 M1060.07 1047.43 C1160.96 927.72, 1265.2 809.37, 1481.75 564.31 M1060.23 1048.46 C1151.82 946.18, 1238.5 846.24, 1480.48 565.65 M1070.99 1048.9 C1184.39 921.13, 1294.62 796.05, 1479.2 577.67 M1071.64 1047.66 C1210.4 885.23, 1351.29 723.07, 1480.36 576.66 M1081.72 1046.74 C1209.97 899.12, 1336.78 749.88, 1481.61 587.92 M1082.19 1048.61 C1238.41 869.4, 1393.36 692.55, 1480.99 589.33 M1092.37 1046.38 C1200.62 925.8, 1307.67 806.43, 1480.7 600.63 M1092.55 1047.34 C1183.89 945.82, 1274.56 843.41, 1481.46 600.98 M1103.08 1048.55 C1231.69 894.86, 1364.02 740.68, 1480.93 611.96 M1103.01 1047.76 C1215.32 920.24, 1328.6 789.84, 1481.34 613.61 M1114.75 1047 C1192.13 955.73, 1273.41 865.69, 1480.35 626.38 M1113.91 1047.68 C1255.53 883.35, 1398.9 720.17, 1480.44 625.37 M1123.29 1048.6 C1199.6 956.99, 1276.43 870.58, 1480.28 638.47 M1124.51 1047.12 C1228.44 926.92, 1334.88 804.79, 1480.27 637.53 M1136.35 1048.63 C1215.18 954.04, 1294.09 864.5, 1482.15 651.21 M1135.01 1047.07 C1243.13 929.14, 1347.92 807.45, 1480.63 649.72 M1145.23 1047.7 C1254.37 923.18, 1361.67 799.1, 1481.13 661.05 M1145.42 1048.23 C1271.03 906.59, 1395.91 763.71, 1480.99 662.12 M1157.56 1046.18 C1234.86 957.28, 1311.85 869.71, 1482.3 675.57 M1156.03 1048.19 C1227.75 967.42, 1297.84 888.74, 1480.33 673.28 M1165.84 1048.58 C1288.05 903.67, 1413.96 760.07, 1481.34 686.14 M1166.15 1048.13 C1272.93 926.48, 1377.96 806.49, 1480.17 686.08 M1177.62 1047.73 C1300.37 907.72, 1418.75 770.97, 1480.65 698.34 M1178.2 1048.43 C1262.79 954.34, 1345.99 858.86, 1481.31 698.8 M1189.66 1049.46 C1262.28 960.39, 1337.15 873.75, 1479.92 711.3 M1187.32 1047.05 C1258.54 966.16, 1330.36 883.87, 1481.5 711.24 M1197.81 1048.86 C1278.58 958.46, 1356.38 866.36, 1479.39 721.29 M1198.42 1047.5 C1307.09 923.82, 1415.42 797.6, 1480.47 721.98 M1210.93 1045.82 C1283.52 962.31, 1355.48 879.07, 1480.06 736.31 M1210.09 1047.85 C1319.1 923.01, 1427.17 797.69, 1480.32 736.05 M1218.87 1047.7 C1289.37 970.81, 1354.91 894.17, 1479.64 749.26 M1220.23 1046.54 C1318.55 933.93, 1419.41 819.14, 1481.54 747.35 M1231.55 1048.54 C1300.37 962.78, 1372.68 881.82, 1480.4 760.82 M1231.42 1047.88 C1307.1 959.09, 1384.32 870.95, 1481.15 759.37 M1240.12 1047.15 C1315.79 957.78, 1398.1 864.52, 1481.91 773.03 M1240.27 1046.47 C1297.88 985.92, 1353.79 923.16, 1480.78 770.76 M1250.1 1049.83 C1316.24 965.25, 1387.22 887.15, 1479.44 782.23 M1252.4 1046.39 C1329.19 956.35, 1409.75 865.07, 1481.09 784.16 M1264.17 1046.38 C1334.8 963.61, 1406.82 885.58, 1479.73 796.54 M1263.49 1047.62 C1311.5 988.01, 1362.65 930.59, 1481.54 795.08 M1270.71 1048.39 C1319.3 998.98, 1357.21 952.19, 1481.43 806.82 M1271.37 1049.34 C1333.58 975.37, 1395.71 906.26, 1480.23 808.67 M1286.01 1045.43 C1333.15 989.12, 1387.39 932.04, 1483.25 822.61 M1283.03 1047.2 C1325.59 998, 1366.63 950.57, 1480.14 821.59 M1296.05 1049.74 C1329.55 1001.59, 1364.92 956.56, 1481 833.89 M1294.7 1047.48 C1364.47 962.4, 1438.22 881.52, 1480.59 832.04 M1305.36 1048.64 C1371.04 968.99, 1435.95 889.22, 1484.06 843.47 M1303.12 1047.42 C1362.86 972.62, 1425.74 903.6, 1480.35 843.62 M1315.14 1048.14 C1350.22 1004.97, 1393.01 957.4, 1479.51 859.05 M1315.54 1048.17 C1359.45 994.98, 1406.86 942.57, 1481.02 858.13 M1324.15 1044.66 C1376.98 984.5, 1432.25 922.6, 1482.64 869.86 M1325.65 1049.48 C1380.2 984.37, 1434.06 923.89, 1481.02 870.02 M1336.66 1046.11 C1382.46 985.36, 1433.2 935, 1483.73 883.84 M1336.49 1046.77 C1374.45 1000.43, 1414.13 957.69, 1482.25 880.07 M1343.49 1047.16 C1377.72 1009.91, 1411.79 970.28, 1483.97 894.82 M1348.72 1049.1 C1376.96 1007.07, 1409.31 970.35, 1480.29 895.05 M1358.39 1051.53 C1388.77 1003.71, 1422.33 967.65, 1479.67 908.61 M1357.56 1049.11 C1390.87 1005.03, 1426.9 962.47, 1482.15 907.76 M1369.92 1051.49 C1409.85 996.13, 1452.72 950.58, 1478 916.35 M1368.25 1047.2 C1391.41 1021.23, 1414.68 994.43, 1481.41 918.52 M1378.53 1046.09 C1409.91 1014.47, 1446.78 972.11, 1483.8 929.11 M1379.08 1047.1 C1413.14 1014.17, 1441.6 977.91, 1480.86 931.71 M1392.42 1051.46 C1408.62 1023.74, 1432.37 1004.37, 1478.6 944.89 M1389.54 1047.81 C1418.98 1011.38, 1451.87 973.2, 1480.86 944.57 M1396.86 1047.04 C1416.97 1024.59, 1441.51 997.14, 1482.79 955.47 M1401.65 1048.62 C1425.46 1020.27, 1451.26 991.37, 1480.44 952.79 M1411.98 1049.8 C1437.39 1020.64, 1457.68 1000.71, 1480.02 969.67 M1409.06 1045.99 C1430.59 1023.3, 1454.62 998.57, 1481.05 968.34 M1422.47 1044.51 C1434.83 1030.71, 1450.99 1018.91, 1482.26 976.36 M1422.18 1046.42 C1443.75 1024.07, 1464.01 998.55, 1483.04 977.09 M1435.37 1049.97 C1443.78 1033.89, 1454.52 1023.27, 1482.92 995.45 M1433.35 1047.31 C1444.77 1031.52, 1458.23 1016.88, 1482.13 992.5 M1441.81 1049.26 C1452.12 1040.66, 1459.31 1026.73, 1477.21 1005.13 M1441.9 1045.9 C1453.59 1036.16, 1462.42 1025.62, 1481.13 1005.38 M1450.75 1048.02 C1458.26 1043.76, 1465.96 1029.15, 1483.96 1012.61 M1455.31 1048.04 C1463.91 1037.6, 1471.83 1025.84, 1479.19 1017.4 M1466.74 1044.66 C1472.51 1041.15, 1478.14 1032.19, 1477.99 1029.43 M1462.34 1049.18 C1466.23 1041.57, 1472.55 1040.94, 1479.47 1026.85 M1475.12 1047.98 C1478.71 1045.95, 1481.32 1042.01, 1480.18 1041.09 M1474.36 1047.23 C1475.96 1043.85, 1479.37 1042.3, 1481.42 1039.06 M0.17 1046.97 C0.17 1046.97, 0.17 1046.97, 0.17 1046.97 M0.17 1046.97 C0.17 1046.97, 0.17 1046.97, 0.17 1046.97 M9.9 1048.35 C9.12 1046.56, 8.85 1040.9, 1.17 1034.8 M11.74 1046.01 C9.97 1044.12, 5.08 1040.39, -1.02 1035.31 M25.33 1043.52 C16.5 1039.91, 13.44 1036.41, -3.43 1024.64 M22.8 1046.48 C18.11 1041.87, 11.76 1035.92, -1.25 1025.65 M34.17 1046.87 C24.13 1034.32, 13.29 1025.63, -3.62 1012.12 M37.76 1045.03 C26.17 1036.9, 19.75 1029.14, -0.78 1013.12 M51.38 1045.84 C34.73 1033.69, 21.66 1024.93, 0.44 1005.88 M49.27 1045.14 C34.38 1033.73, 20.37 1022.36, -0.73 1002.67 M58.12 1050.05 C49.53 1035.44, 31.09 1021.93, -0.08 995.71 M60.95 1048.24 C41.82 1030.62, 21.84 1011.92, 1.34 995.01 M71.38 1049.9 C47.99 1021.21, 18.83 997.39, 3.34 986.44 M72.96 1046.25 C49.19 1029.38, 25.36 1005.41, 0.25 983.3 M86.71 1048.16 C60.14 1032.8, 46.82 1013.95, -1.72 976.19 M84.1 1047.85 C64.67 1028.7, 44.19 1009.35, 0.37 973.99 M96.79 1046.88 C71.09 1026.82, 53.13 1003.49, 1.18 958.62 M97.71 1048.01 C60.26 1014.85, 24.67 983.37, 0.7 963.69 M109.84 1050.32 C86.88 1021.69, 53.58 997.36, 3.05 949.18 M111.49 1045.54 C69.91 1014.38, 27.31 978.88, 0 952.06 M124.46 1048.55 C79.61 1013.46, 38.03 975.78, 3.24 939.35 M123.68 1045.31 C77.98 1009.33, 31.74 968.86, -2.07 942.67 M135.79 1047.66 C91.55 1011.01, 45.97 973.82, 3.19 930.93 M134.67 1047.09 C90.83 1008.65, 47.14 973.34, 0.17 931.89 M142.35 1045.36 C85.33 1000.88, 33.9 950.65, 0.17 922.22 M145.09 1047.76 C110.91 1017.57, 80.93 990.19, -0.44 917.74 M156.67 1049.51 C103.61 995.57, 41.41 946.36, -2.65 910.14 M157.81 1046.87 C111.19 1003.16, 64.57 961.52, 1.02 908.82 M174.26 1050.41 C122.73 1006.86, 75.78 962.57, -3.47 900.93 M171.41 1048.11 C115.11 997.44, 58.48 946.54, -0.44 897.27 M184.78 1043.99 C143.13 1011.91, 98.66 972.4, 0.21 888.63 M183.19 1046.26 C141.29 1009.29, 100.2 972.69, -0.37 887.03 M196.27 1048.66 C126.98 981.51, 50.75 921.02, 0.79 879.81 M193.96 1046.05 C133.81 994.77, 76.87 944.42, -0.84 876.58 M206.43 1045.46 C156.35 999.44, 108.39 961.88, -0.79 865.69 M205.88 1046.56 C137.82 982.48, 68.9 920.79, 0.98 867.43 M218.23 1046.17 C139.79 981.18, 56.93 909.17, 3.16 854 M220.63 1046.24 C134.19 977.03, 49.93 900.51, -0.97 855.83 M229.46 1044.37 C155.74 983.07, 76.93 912.71, 1.29 848.19 M232.35 1047.23 C177.6 1000.25, 119.16 948.87, 1.16 846.54 M243.05 1045.37 C176.58 996.48, 115.91 939.35, 1.86 833.44 M243.65 1047.28 C176.83 988.25, 111.41 931.51, 0.33 835.74 M255.42 1047.81 C195.04 990.25, 129.37 938.48, -1.73 824.4 M255.53 1047.34 C192.09 986.55, 127.46 932.32, -0.64 823.87 M266.45 1049.18 C159.04 956.56, 57.04 865.9, -1.35 814.93 M268.41 1046.75 C200.1 991.91, 135.06 933.43, -0.35 812.89 M280.56 1047.98 C188.42 967.11, 97.8 891.36, -0.57 803.07 M280.99 1047.03 C215.83 988.71, 152.42 934.19, -0.38 804.01 M293.45 1045.59 C231.38 991.08, 173.61 939.02, -1.89 791.65 M292.1 1047.95 C209.79 971.62, 125.39 898.22, 0.67 793.61 M305.46 1048.94 C196.5 949.95, 81.69 849.95, -1.47 784.01 M305.14 1045.86 C199.49 954.57, 91.07 862.19, 0.45 781.5 M317.06 1048.2 C238.51 980.14, 162.97 913.1, 1.91 772.23 M316.82 1047.02 C199.83 945.49, 82.18 846.12, 0.72 770.75 M327.2 1048.02 C215.95 947.37, 100.64 848.3, 0.12 761.13 M328.81 1047.3 C210.42 945.03, 92.66 842.78, 0.9 761.18 M342.78 1046.57 C208.37 931.96, 76.98 821.98, -1.93 751.09 M342.01 1047.12 C242.34 955.05, 140.6 867.62, -0.86 750.57 M352.66 1046.01 C260.77 966.99, 164.4 884.3, 0.47 739.98 M354.3 1047.77 C241.8 951.89, 132.57 856.94, 0.47 739.19 M364.64 1046.58 C284.74 978.97, 205.9 911.62, -1.29 728.33 M365.89 1047.38 C240.7 940.42, 116.56 830.88, 0.05 727.9 M379.25 1048.11 C240.79 925.65, 104.69 806.89, 0.98 719.46 M378.23 1047.18 C227.31 915.5, 78.47 786.46, -0.91 718.27 M389.89 1045.86 C293.73 966.12, 200.05 883.74, 1.2 707.46 M390.2 1047.36 C241.15 917.28, 93.42 788.55, -0.85 708.24 M403.26 1047.66 C300.91 956.77, 199.46 871.07, 0.26 697.72 M402.56 1046.57 C264.45 928.19, 126.38 808.27, -0.29 697.53 M414.96 1046.7 C300.94 942.92, 185.33 844.05, -0.06 685.2 M414.36 1047.75 C278.81 926.78, 141.35 807.11, 0.22 686.18 M426.49 1045.41 C258.92 902.38, 91.75 757.27, 0.43 674.6 M426.72 1046.24 C333.14 963.69, 240.88 882.05, -1.05 674.96 M437.61 1047.51 C320.64 948.21, 205.55 848.71, 1.07 665.21 M438.24 1046.88 C282.23 912.11, 125.63 776.07, -0.19 665.69 M450.49 1046.67 C336.38 949.42, 224.38 850.59, 1.02 655.04 M450.44 1047.29 C353.07 963.81, 254.62 877.29, 0.03 653.61 M461.53 1047.29 C352.33 945.12, 237.29 848.01, 0.76 645.6 M462.52 1046.94 C350.57 946.65, 238.31 847.89, 0.95 644.4 M475.6 1046.83 C328.81 913.65, 177.44 784.64, -0.31 633.71 M475.81 1046.5 C343.84 934.78, 212.18 819.65, 0.65 634.25 M487.75 1046.9 C301.14 882.47, 109.02 716.27, 1.45 622.8 M487.99 1047.21 C382.71 955.85, 275.23 862.64, 0.53 623.84 M501.25 1045.3 C360.15 922.37, 219.24 796.9, -1.25 611.54 M499.63 1047.13 C368.93 930.88, 239.29 818.05, -0.45 612.77 M512.41 1047.09 C322.54 882.17, 127.71 714.58, 0.42 601.83 M511.69 1046.88 C337.86 897.14, 165.56 747.4, 0.22 602.21 M525.67 1047.58 C388.19 923.7, 252 805.57, 0.14 590.09 M524.22 1046.5 C329.12 876.55, 137.26 711.17, -0.53 590.48 M535.2 1046.66 C427.02 953.31, 317.69 855.79, -0.47 580.93 M537.03 1046.41 C382.14 913.49, 225.88 776.95, 0.28 581.32 M549.41 1047.18 C333.6 862.77, 120.13 678.85, -0.79 568.91 M548.24 1046.83 C363.4 888.9, 182.97 731.95, -0.66 569.92 M559.76 1046.85 C345.83 856.56, 128.12 668.4, -0.42 558.57 M561.31 1047.15 C439.18 942.25, 321.62 839.55, 0.29 559.24 M574.24 1046.22 C455.59 940.08, 336.16 840.69, 1.44 549.39 M573.5 1046.94 C442.98 938.57, 315.05 827.77, -0.21 549.13 M586.86 1046.98 C380.09 865.39, 176.09 689.92, 0.35 536.67 M584.99 1046.93 C432.82 916.91, 282.54 784.95, 0.74 538.33 M597.68 1047.09 C440.35 906.53, 275.66 765.37, 0.07 528.4 M597.96 1046.75 C451.75 915.8, 303.43 786.01, -0.02 527.99 M608.45 1045.58 C460.65 922.07, 317.73 798.31, 0.53 517.41 M610.4 1047.62 C475.39 928.08, 337.26 807.95, -0.13 517.22 M620.32 1047.25 C390.53 846.53, 162.57 648.76, -1.52 504.63 M621.45 1046.87 C407.87 862.53, 192.56 674.88, -0.8 506.66 M635.27 1045.02 C438.05 878.94, 242.27 706.61, 1 496.82 M634.29 1046.95 C410.24 850.65, 190.1 659.43, 0.01 495.62 M647.95 1047.05 C467.16 885.43, 285.39 725.99, 0.61 485.03 M646.11 1046.82 C397.74 828.62, 148.3 611.16, 0.06 485.6 M659.4 1046.29 C438.02 857.41, 212.69 660.24, -1.64 474.36 M658.34 1047.72 C466.15 885.23, 276.72 720.96, -0.35 474.3 M669.45 1047.64 C520.3 910.83, 368.78 778.46, 1.35 462.41 M670.42 1046.18 C416 831.06, 162.51 611.24, 0.5 463.92 M684.02 1047.08 C528.61 918.72, 376.36 784.33, 0.98 452.98 M682.07 1046.23 C451.14 843.5, 217.85 640.04, -0.22 453.53 M694.15 1046.01 C537.32 909.44, 383.52 775.06, -0.67 441.01 M694.43 1045.95 C513.98 890.13, 333.4 733.95, 0.18 442.62 M706.28 1046.37 C453.22 826.47, 196.14 602.45, 0.17 432.64 M708.15 1046.5 C531.45 891.41, 355.23 737.67, -0.87 431.44 M720.72 1045.78 C495.2 861.36, 274.91 667.96, 0.14 420.53 M719.13 1046.62 C500.04 851.49, 277.42 658.59, -1.11 421.36 M730.46 1045.54 C525.01 867.52, 321.46 689.14, -0.25 411.02 M731.56 1046.97 C463.34 809.15, 190.65 571.48, -0.28 411.08 M744.5 1045.68 C489.09 825.49, 239.05 606.41, 1.08 399.99 M744.14 1046.19 C494.7 824.2, 244.39 607.2, 0.51 400.74 M757.25 1046.59 C594.69 902.57, 432.01 763.08, 0.21 390.49 M756.07 1046.75 C511.06 833.92, 271.62 624.64, 0.59 389.82 M769.22 1047.29 C469 794.86, 175.33 535.86, 0.91 378.26 M768.26 1046.34 C550.83 860.96, 330.9 669.57, 0.34 379.67 M781.48 1046.98 C536.14 832.85, 288.76 616.71, 0.07 369.24 M780.77 1046.81 C531.13 827.47, 281.51 611.16, 0.81 368.08 M791.33 1046.62 C532.53 819.48, 266.95 589.29, 1.23 358.07 M792.98 1047.23 C599.69 878.95, 411.72 715.91, 0.93 357.7 M805.9 1047.25 C596.65 865.35, 386.68 685.37, -0.75 348.23 M804.22 1046.44 C600.99 869.33, 400.16 694.97, -0.4 346.69 M818.09 1045.11 C583.98 846.04, 352.13 640.82, 0.23 336.9 M816.57 1047.23 C648.9 899.99, 483.73 756.21, -0.65 337.19 M830.38 1046.02 C648.76 885.72, 461.32 727.77, -0.19 325.49 M829.7 1047.8 C654.47 892.12, 477.23 738.31, 0.32 325.96 M842.93 1047.64 C534.3 792.2, 235.18 529.96, -0.15 314.11 M841.45 1047.42 C561.37 809.42, 287.25 570.22, 0.81 315.99 M852.37 1047.52 C589.06 816.18, 325.41 588.36, -0.45 305.7 M852.84 1047.54 C554.08 784.06, 254.6 524.47, -0.76 304.06 M865.54 1047.76 C618.9 836.24, 374.82 622.31, -0.64 294.1 M865.48 1046.35 C605.12 820.37, 348.15 596.66, -0.55 293.83 M878.49 1047 C581.43 787.17, 290.37 532.68, -1.55 284.18 M878.01 1046.13 C675.92 868.19, 469.35 688.51, -0.05 283.45 M890.79 1048.33 C706.75 878.73, 516.99 714.11, -1.38 273.52 M890.46 1046.3 C598.69 789.11, 306.15 535.74, -0.85 272.28 M903.15 1047.98 C692.27 861.85, 488.49 682.27, -1.39 262.91 M901.73 1047.52 C656.53 830.23, 406.84 613.77, 0.59 262.86 M913.1 1046.6 C629.74 804.39, 350.5 562.92, 1.2 250.87 M914.52 1046.38 C581.13 752.55, 243.45 459.56, -0.93 251.62 M925.42 1047.45 C706.22 851.99, 483.56 661.04, 1.09 240.92 M926.39 1045.96 C637.38 795.24, 344.65 540.5, 0.21 240.49 M937.67 1045.25 C621.91 763.18, 296.39 483.04, -1.57 229.7 M938.96 1047.17 C658.57 794.76, 372.6 545.28, 0.14 230.8 M951.15 1046.86 C637.45 768.81, 325.65 497.76, -0.49 220.67 M951.11 1046.61 C734.32 862.13, 512.62 669.38, 0.37 220.44 M962.27 1047.22 C642.88 767.14, 329.23 496.73, -1.78 209.01 M962.81 1047.08 C613.3 743.55, 269 444.32, 0.2 209.03 M974.11 1046.91 C616.4 737.62, 250.37 418.82, -0.78 198.51 M975.31 1047.47 C647.06 757.03, 318.97 470.21, 0.39 198.25 M987.75 1047.32 C735.09 822.09, 481.08 599.78, -0.61 186.46 M986.96 1046.88 C715.48 799.39, 439.21 560.22, 0.41 187.4 M1000.49 1045.71 C621.34 718.84, 251.41 396.75, -1.1 178.05 M999.21 1047.2 C622.49 720.53, 246.95 394.74, -0.36 177.61 M1013.74 1046.43 C635.8 722.04, 260.27 395.96, -1.11 168.6 M1013.04 1047.79 C651.35 729.26, 288.99 415.45, -0.4 167.94 M1024.24 1046.4 C794.75 843.2, 558.34 638.09, 0.3 158.02 M1024.76 1046.33 C681.03 751.35, 344.15 459.15, 0.95 156.51 M1035.78 1046.28 C726.34 773.21, 414.32 500.88, 1.54 145.87 M1035.81 1046.32 C806.93 847.55, 583.61 653.01, 0.89 146.18 M1047.19 1045.63 C657.48 707.51, 266.63 365.8, -0.03 136.14 M1048.56 1046.87 C829.71 860.04, 608.33 667.24, 0.77 136 M1060.25 1047.59 C734.99 764.35, 401.9 473.68, -1.02 125.32 M1061.17 1046.81 C829.63 857.73, 603.44 662.2, 0.17 124.7 M1074.72 1047.71 C708.88 732.52, 341.84 412.77, -0.91 112.94 M1073.55 1047.36 C788.53 800.27, 495.27 547.43, 0.5 114.32 M1086.05 1048.15 C786.92 789.98, 484.68 527.75, -1.34 102.41 M1084.8 1046.65 C831.99 828.34, 574.74 603.79, 0.69 104.09 M1096.98 1046.58 C666.41 661.22, 233.06 286.62, 0.97 92.39 M1098.2 1047.19 C668.02 664.11, 234.6 287.65, 0.85 92.41 M1108.8 1047.22 C791.75 780.83, 480.98 508.1, -1.05 80.84 M1109.01 1047.18 C759.73 735.78, 408.53 430.47, -0.55 82.01 M1122.89 1046.4 C779.19 751.66, 443.38 458.29, 1.47 72.33 M1121.73 1046.37 C791.54 761.64, 456.55 471.96, 0.27 72.28 M1135.66 1046.93 C866.59 814.45, 601.7 584.74, -1.2 59.75 M1133.65 1047.01 C900.35 846.88, 662.78 640.39, -0.03 61.22 M1145.95 1046.77 C745.08 701.06, 347.94 351.55, -1.41 50.82 M1146.72 1046.81 C765.54 718.37, 383.66 387.66, -0.24 50.6 M1156.94 1047.05 C874.51 790.54, 581.66 536.71, 0.89 40.15 M1158.1 1046.41 C911.83 837.49, 668.7 626, -0.53 39.92 M1170.73 1047.18 C765.54 698.98, 366.74 353.22, -1.1 29.4 M1170.41 1047.11 C835.03 753.51, 499.82 461.24, -0.41 28.33 M1183.35 1046.37 C871.37 775.24, 549.39 496.36, -1.14 18.5 M1181.71 1047.09 C771.6 690.05, 357.87 330.04, 0.12 18.21 M1195.8 1048.4 C725.55 633.69, 249.08 219.16, -1.68 6.63 M1194.75 1047.18 C738.88 645.83, 282.8 248.8, -0.6 7.5 M1208.56 1047.11 C913.88 786.16, 617.23 528.85, 1.2 -2.41 M1207.95 1047.03 C742.11 630.27, 270.76 220.8, 0.92 -2.22 M1220.41 1047.21 C800.28 679.63, 374.01 308.72, 14.89 -0.44 M1218.83 1046.17 C890.4 772.48, 564.84 488.95, 13.33 -1.77 M1232.51 1046.59 C814.9 698.17, 405.47 338.24, 23.79 -0.84 M1230.98 1046.54 C955.37 802.21, 678.63 560.95, 25.41 -2.37 M1243.46 1047.43 C811.2 666.11, 382.44 292.18, 36.95 -1.11 M1244.11 1047.09 C953.24 785.73, 658.17 529.32, 37.39 -0.47 M1257.14 1048.19 C844.93 700.54, 434.17 342.34, 49.62 -0.22 M1256.87 1046.41 C903.15 737.74, 542.86 424.97, 49.45 -1.94 M1267.6 1048.3 C938.52 759.13, 606.37 471.16, 61.2 -0.15 M1269 1046.81 C996.54 804.8, 721.99 566.1, 61.89 -1.84 M1280.29 1046.54 C992.08 788.34, 698.49 532.96, 73.01 -1.22 M1280.01 1047.47 C840.76 656.85, 401.72 274.81, 74.18 -1.06 M1293.75 1045.76 C939.4 750.43, 594.38 448.83, 86.5 -0.53 M1292.94 1046.91 C836.02 642.62, 378.97 245.49, 86.13 -2.1 M1304.24 1048.05 C981.33 765.01, 662.61 489.21, 98.28 -0.01 M1304.39 1047.22 C905.93 702.33, 510.08 358.55, 99.11 -1.73 M1316.81 1046.64 C957.15 742.94, 605.42 435.09, 110.66 -1.76 M1316.93 1047.06 C961.5 738.83, 609.66 433.56, 111.9 -1.18 M1330.19 1046.62 C1051.61 804.26, 775.44 564.39, 124.04 0.03 M1328.51 1047.41 C1062.51 816.12, 793.14 580.91, 122.44 -1.93 M1342 1047.36 C977.34 733.81, 612.75 414.74, 134.59 -1.89 M1340.67 1046.21 C873.64 629.71, 400.18 217.62, 134.87 -1.52 M1352.84 1047.2 C890.09 640.1, 426.05 235.74, 148.53 -0.64 M1352.74 1047.32 C1084.84 807.04, 817.12 573.05, 147.96 -2.18 M1365.32 1045.64 C1064.42 790.57, 768.69 532.97, 161.16 -2.47 M1365.41 1047.78 C946.78 688.55, 532.9 328.69, 159.46 -1.84 M1378.48 1048.04 C898.97 630.87, 420.93 212.03, 170.55 -2.9 M1378.18 1046.72 C1098.76 803.08, 824.77 565.39, 171.58 -1.15 M1389.9 1048.03 C957.16 668.24, 517.59 286.79, 182.77 -1.04 M1389.51 1046.45 C1093.88 788.4, 805.75 538.12, 184.77 -0.83 M1402.9 1048.2 C994.02 684.08, 587.06 330.02, 196.78 -1.37 M1402.25 1047.01 C1076.08 755.57, 745.39 466.97, 196.7 -2.36 M1415.27 1045.66 C1142.54 810.89, 875.8 578.13, 209.04 -2.53 M1413.7 1047.15 C1154.41 835.35, 899.27 613.5, 208.32 -2.12 M1427.08 1046.41 C1066.44 728.95, 706.45 417.42, 221.45 -2.19 M1426.32 1046.93 C1012.1 689.27, 600.48 331.48, 221.82 -1.66 M1438.34 1047.57 C1088.41 752.71, 741.08 450.32, 232.54 -1.99 M1438.85 1047.08 C1167.56 809, 895.9 573.55, 233.32 -1.89 M1451.11 1045.44 C976.07 630.83, 502.87 220.06, 245.95 -2.66 M1451.25 1046.84 C1051.31 698.67, 653.52 351.95, 245.79 -2.05 M1463.88 1046.62 C1029.47 674.36, 598.61 302.67, 258.51 -2.61 M1463.7 1046.54 C1121.62 759.86, 786.54 467.86, 256.89 -1.98 M1476.31 1047.08 C1066.98 702, 662.31 351.31, 268.07 -2.69 M1474.69 1046.95 C1131.72 742.99, 789.02 444.45, 269.8 -1.08 M1480.64 1040.68 C1077.52 693.66, 678.29 344.34, 281.38 -1.51 M1481.72 1041.23 C1228.7 825.99, 981.41 612.42, 281.64 -0.55 M1480.88 1030.55 C1158.77 749.33, 835.74 467.01, 292.56 -0.31 M1481.15 1030.55 C1034.7 632.44, 583.96 240.59, 293.62 -0.82 M1480.73 1020.36 C1193.86 772.71, 910.44 527.03, 307.5 -1.37 M1481.33 1019.63 C1157.82 739.29, 835.5 458.59, 306.52 -2.11 M1481.76 1007.97 C1068.38 646.31, 655.43 286.33, 319.22 -0.09 M1481.46 1009.83 C1111.04 683.57, 732.47 354.55, 318.04 -1.85 M1480.6 997.94 C1234.07 789.11, 987.12 575.29, 331.64 -2.66 M1481.25 998.32 C1040.82 609.81, 596.13 222.72, 330.45 -1.72 M1482.4 989.67 C1078.33 639.08, 674.98 284.27, 341.88 -2.11 M1481.34 988.04 C1060.79 625.59, 642.93 260.88, 342.2 -1.82 M1483.1 978.9 C1138.54 681.86, 788.52 376.28, 353.91 -2.4 M1481.37 977.48 C1161.86 704.39, 847.35 430.56, 354.91 -1.37 M1483.12 968.83 C1192.22 708.27, 902.45 453.92, 367.84 -0.83 M1482.14 968.07 C1168.58 688.38, 852.15 414.04, 367.17 -0.77 M1482.95 955.76 C1156.31 679.04, 830.19 394.47, 377.52 -2.52 M1481.05 957.19 C1118.89 636.52, 759.67 325.14, 378.39 -2.34 M1480.91 946.52 C1180.98 697.9, 883.1 439.54, 391.25 -2.9 M1482.28 945.56 C1062.05 587.8, 639.9 221.98, 391.59 -1.26 M1480.9 934.48 C1208.39 692.17, 932.32 454.62, 404.43 -2.1 M1482.03 934.98 C1128.75 627.21, 777.41 321.1, 403.37 -0.61 M1480.39 926.01 C1273.77 742.93, 1060.13 556.79, 416.41 -0.31 M1481.75 925.55 C1127.35 626.85, 781.26 326.36, 415.81 -0.8 M1480.67 915.81 C1064.47 559.43, 654.34 204.07, 429.36 -2.55 M1482.22 914.38 C1138.25 607.44, 794.61 308.79, 428.6 -1.72 M1481.17 903.79 C1177.46 640.25, 876.25 380.07, 439.49 -1.17 M1480.74 903.94 C1188.34 654.56, 895.14 399.91, 439.68 -1.78 M1480.16 892.76 C1265.03 698.73, 1046.34 510.99, 452.16 -2.45 M1481.26 892.82 C1081.21 544.22, 672.24 190.55, 453.6 -1.09 M1481.83 882.97 C1094.37 551.24, 711.25 216.48, 463.44 -2.72 M1481.95 882.48 C1105.64 559.65, 728.4 231.83, 464.56 -0.5 M1481 872.97 C1117.62 554.16, 758.15 242.48, 478.24 -2.73 M1482.11 871.19 C1239.59 659.18, 993.66 443.98, 477.38 -2.11 M1479.86 860.54 C1152.01 578.24, 818.09 288.59, 488.73 -2.97 M1481 860.79 C1240.94 643.8, 999.01 432.62, 488.93 -1.99 M1482.19 849.95 C1122.06 541.89, 758.58 226.85, 501.43 -2.12 M1481.47 850.66 C1273.88 666.99, 1061.06 482.45, 500.55 -1.92 M1481.33 840.11 C1252.73 637.07, 1021.13 435.46, 513.02 -1.86 M1480.84 839.6 C1200.1 601.21, 921.14 359.31, 514.42 -0.41 M1480.04 828.64 C1188.47 562.61, 888.23 305.48, 527.28 -2.26 M1480.94 829.46 C1200.08 581.57, 922.02 340.86, 526.23 -1.37 M1481.65 819.17 C1111.58 493.33, 746.52 176.74, 537.87 -0.1 M1480.55 819.06 C1276.67 640.4, 1070.14 460.3, 538.15 -1.84 M1481.07 809.45 C1142.73 520.14, 805.87 225.85, 548.44 -0.17 M1480.66 807.73 C1230.72 584.57, 976.19 362.37, 549.83 -2.23 M1481.58 798.65 C1214.55 574.07, 946.45 340.9, 561.28 -0.97 M1481.73 797.25 C1206.92 568.16, 935.85 332.91, 561.24 -2.14 M1482.69 788.23 C1290.63 609.93, 1093.4 439.29, 575.55 -2.74 M1480.9 787.45 C1289.69 625.41, 1095.56 455.41, 575.47 -0.95 M1480.84 776.51 C1239.06 571.83, 998.34 363.78, 588.19 -2.74 M1480.49 776.49 C1218.19 547.26, 949.32 314.89, 586.53 -1.69 M1479.7 765.88 C1230.71 555.42, 980.9 338.25, 599.14 -0.06 M1480.44 766.09 C1131.43 457.14, 783.71 154.75, 598.79 -1.94 M1481.28 754.18 C1243.07 550.92, 1005.11 343.74, 612.23 -0.55 M1480.31 755.39 C1173.32 475.93, 860.77 205.53, 611.53 -0.94 M1480.99 745.8 C1231.29 530.73, 984.43 316.14, 623.8 -2.41 M1482.15 745.25 C1198.01 496.7, 918.63 254.83, 623.42 -1.76 M1481.28 733.99 C1265.15 550.26, 1046.48 361.83, 636.99 -1.09 M1481.49 734.29 C1198.53 486.53, 920.33 245.37, 635.28 -0.68 M1480.93 724.89 C1264.45 532.32, 1039.48 338.9, 646.63 -0.59 M1481.96 723.24 C1179.01 466.62, 879.95 206.73, 647.53 -0.7 M1482.28 713.37 C1153.19 430.2, 825.13 148.41, 660.41 -2.23 M1481.45 712.62 C1318.58 573.35, 1152.94 431.03, 660.34 -0.82 M1483.12 703.85 C1172.74 425.56, 862.6 157.46, 671.03 -3.15 M1481.38 702.2 C1252.47 510.55, 1028.39 316.08, 671.12 -1.54 M1480.56 691.93 C1266.85 500.17, 1043.27 307.53, 683.22 -1.2 M1482.34 691.28 C1238.82 482.01, 1000.59 273.9, 683.65 -2.23 M1481.34 681.37 C1244.34 477.39, 1004.67 270.85, 695.98 0.26 M1481.31 680.71 C1250.22 471.94, 1015.16 267.28, 696.55 -1.76 M1480.16 668.92 C1239.97 468.59, 1005.3 264.2, 709.91 0.2 M1481.73 669.98 C1260.41 481.21, 1040.49 289.17, 708.68 -0.72 M1482.74 661.23 C1313.5 515.33, 1148.58 373.71, 719.58 -1.62 M1481.16 659.2 C1273.39 470.78, 1061.66 286.43, 720.9 -1.99 M1480.92 650.19 C1251.49 455.14, 1022.63 257.6, 733.66 -3.15 M1481.3 649.48 C1216.31 416.68, 950.09 184.69, 733.55 -1.78 M1482.19 639.4 C1309.39 493.01, 1142.14 349.43, 744.35 -1.78 M1482.06 638.41 C1263.13 449.94, 1043.79 259.7, 744.41 -1.43 M1481.57 629.08 C1262.84 432.42, 1043.58 240.83, 757.62 -2.28 M1482.03 628.45 C1312.97 484.13, 1143.06 335.88, 757.94 -1.61 M1481.53 616.95 C1232.82 400.94, 982.84 180.78, 768.55 -2.6 M1482.08 617.71 C1281.1 446.38, 1080.33 271.61, 769.87 -1.38 M1479.85 605.56 C1233.09 385.44, 981.76 167.34, 782.47 -1.8 M1481.06 606.63 C1209.31 373.48, 935.53 136.34, 781.83 -1.94 M1479.96 596.77 C1256.79 399.24, 1032.34 202.33, 793.53 -1.77 M1481.01 596.78 C1214.58 369.56, 950.17 139.04, 793.92 -0.85 M1482.01 586.26 C1248.11 388.96, 1019.03 188.73, 805.3 -2.5 M1481.24 584.81 C1335.81 454.97, 1189.41 327.73, 805.98 -2.28 M1480.4 574.02 C1342.9 456.49, 1208.1 339, 819.42 -0.5 M1481.95 575.56 C1222.35 347.44, 959.85 119.72, 818.74 -1.55 M1480.46 565.26 C1271.01 384.22, 1059.59 201.05, 830.14 -0.13 M1481.53 564.87 C1317.22 429.01, 1156.56 289.78, 831.29 -1.86 M1479.95 552.1 C1256.56 362.49, 1035.53 170.1, 842.27 -2.37 M1481.76 554.27 C1265.3 361.48, 1047.55 171.97, 842.82 -1.94 M1482.56 543.27 C1348.31 430.6, 1212.32 314.06, 856.13 -0.14 M1481.85 543.38 C1264.33 350.25, 1047.26 162.79, 854.91 -1.59 M1482.63 533.05 C1337.83 402.17, 1192.47 278.46, 865.74 -2.35 M1480.58 531.81 C1313.39 387.53, 1143.45 241.8, 866.25 -2.22 M1481.83 521.29 C1286.08 356.45, 1091.28 186.06, 879.55 -0.33 M1481.42 521.15 C1292.92 356.23, 1101.57 189.62, 880.33 -1.09 M1481 511.83 C1326.88 375.36, 1170.92 240.32, 892.46 -1.57 M1481.06 511.19 C1304.35 361.35, 1129.82 210.18, 891.62 -1.54 M1481.08 501.18 C1264.17 314.06, 1046.49 123.03, 903.85 -2.46 M1481.15 500.77 C1312.79 352.57, 1140.71 202.65, 903.37 -0.73 M1481.88 489.69 C1282.8 313.31, 1083.1 139.78, 915.31 -2.86 M1482.11 490.55 C1298.93 329.45, 1113.84 170.11, 915.41 -1.52 M1483.01 479.91 C1299.82 325.97, 1119.64 167.98, 928.86 -1.27 M1482.19 479.09 C1290.37 313.68, 1097.37 144.84, 927.01 -1.85 M1482.11 468.48 C1306.16 311.78, 1128.27 156.49, 941.99 0.23 M1481.82 468.66 C1304.74 315.29, 1126.57 160.64, 941.22 -1.71 M1481.95 459.87 C1309.51 307.3, 1133.05 153.56, 951.77 -2.45 M1480.9 459.22 C1336.62 325.5, 1188.25 195.84, 952.77 -0.68 M1481.53 448.05 C1314.05 299.6, 1143.01 150.82, 963.28 -1.05 M1480.85 447.12 C1325.62 311.68, 1169.01 174.87, 964.18 -1.57 M1479.99 436.62 C1297.84 273.91, 1110.23 112.08, 977.66 -2.22 M1481.82 436.7 C1364.24 337.13, 1247.34 235.38, 976.83 -1.57 M1480.52 426.9 C1375.38 332.93, 1269.06 240.34, 987.2 -0.41 M1481.58 426.2 C1345.03 307.89, 1209.25 190.3, 988.97 -2.35 M1481.41 415.61 C1373.99 320.37, 1264.94 225.65, 1002.37 -1.91 M1480.78 416.13 C1354.57 305.17, 1224.03 193.05, 1001.71 -1.16 M1480.02 405.38 C1305.14 258.68, 1134.21 106.72, 1014.32 -0.93 M1481.74 404.83 C1336.92 276.45, 1188.67 149.05, 1013.25 -1.02 M1479.82 396.09 C1334.14 269.24, 1191.28 143.55, 1025.69 -0.43 M1480.97 395.19 C1384.93 308.54, 1288.62 225.9, 1025.45 -1.66 M1481.52 385.7 C1361.11 279.75, 1239.07 174.46, 1038.69 -0.99 M1480.76 383.84 C1340.23 258.96, 1200 136.77, 1038.09 -1.82 M1480.57 374.4 C1365.76 279.91, 1255.11 182.83, 1050.2 -2.47 M1481.69 374.25 C1312.07 229.72, 1146.02 85.37, 1050.05 -1.41 M1480.65 362.29 C1339.92 240.8, 1198.37 116.01, 1062.74 -2.49 M1481.41 362.72 C1390.31 285.3, 1300.22 206.22, 1062.13 -0.51 M1481.58 353.51 C1361.55 246.71, 1241.79 140.95, 1075.84 -1.29 M1481.55 351.52 C1371.89 256.12, 1258.87 157.66, 1074.46 -1.68 M1480.01 341.07 C1365.13 242.25, 1251.49 145.75, 1088.01 -0.14 M1481.76 341.24 C1331.09 208.66, 1181.68 80.45, 1086.71 -0.81 M1479.72 330.25 C1374.72 234.88, 1265.41 141.8, 1097.65 -3.04 M1481.72 331.12 C1368.91 235.99, 1257.76 139.38, 1098.69 -2.25 M1482.78 320.19 C1348.52 205.96, 1219.9 92.92, 1110.89 -2.41 M1481.65 321.06 C1404.1 256.52, 1327.66 188.99, 1109.94 -1.77 M1480.3 311.46 C1380.45 222.59, 1276.11 132.31, 1123.86 0.36 M1481.06 310.28 C1350.21 191.19, 1214.72 76.01, 1122.6 -1.61 M1479.44 299.74 C1382.15 214.18, 1281.37 127.4, 1136.39 -1.47 M1480.95 299.26 C1363.72 198.57, 1244.8 95.32, 1135.8 -1.38 M1481.66 287.35 C1346.94 175.05, 1213.38 58.26, 1147.22 -0.18 M1480.97 288.75 C1414.04 227.17, 1346.27 168.49, 1146.49 -2.23 M1482.43 278.82 C1363.09 177.57, 1246.72 73.18, 1159.28 -0.66 M1482.32 278.75 C1400.88 208.23, 1320.19 136.84, 1160.37 -1.75 M1480.54 266.55 C1385.45 185.15, 1284.87 99.79, 1169.63 0.1 M1481.23 268.2 C1358.89 159.41, 1233.75 52.24, 1171.81 -2.58 M1480.67 256.42 C1371.78 161.69, 1261.67 64.4, 1183.41 -1.38 M1482.66 257.39 C1411.69 192.39, 1337.36 127.45, 1185.15 -1.15 M1482.62 245.41 C1379.85 157.51, 1277.65 69.28, 1194.51 -3.65 M1482.69 245.65 C1392.4 170.71, 1307.83 95.55, 1195.54 -0.34 M1482.05 236.7 C1423.06 188.85, 1370.1 143.46, 1209.09 -3.3 M1480.58 235.08 C1413.93 172.51, 1343.42 113.22, 1207.59 -1.15 M1481.29 226.8 C1414.72 165.19, 1351 112.64, 1219.76 -1.55 M1480.37 226.44 C1380.28 135.76, 1277.87 48.8, 1221.61 -2.03 M1481.11 216.63 C1414.58 158.46, 1345.9 97.55, 1232.14 -2.9 M1481.68 213.99 C1419.21 157.04, 1353.68 99.57, 1231.5 -2.37 M1481.59 202.66 C1396.73 130.22, 1317.16 58.35, 1246.85 -2.15 M1482.34 204.63 C1410.37 144.14, 1343.81 83.04, 1244.99 -1.53 M1483.22 195.44 C1410.85 133.37, 1341.68 68.61, 1256.54 -1.17 M1481.91 194.63 C1422.17 141.86, 1361.88 89.14, 1257.53 -0.88 M1482.24 181.14 C1433.59 141.89, 1385.19 104.86, 1269.09 -4.35 M1482.83 183.41 C1404.24 118.23, 1330.52 55.97, 1267.88 -2.31 M1483.9 169.46 C1408.49 103.43, 1326.91 35.43, 1283.05 -1.21 M1482.41 171.76 C1418.09 115.78, 1351.45 57.16, 1282.59 -1.06 M1479.34 160.49 C1437.75 120.3, 1389.04 81.32, 1295.52 0.25 M1482.58 162.76 C1437.71 121.67, 1389.61 81.82, 1293.75 -2.07 M1478.43 151.58 C1442.2 115.57, 1404.03 78.17, 1307.02 -3.54 M1481.55 149.36 C1427.96 104.6, 1376.57 58.91, 1304.68 0.02 M1479.61 138.86 C1446.42 108.43, 1418.41 81.26, 1321.61 -4.54 M1481.15 141.42 C1447.72 108.8, 1411.27 78.14, 1316.87 -0.27 M1484.1 126 C1433.1 82.34, 1382.48 37.15, 1331.21 -4.14 M1481.18 129.62 C1435.7 88.56, 1388.45 48.06, 1330.83 -1.65 M1481.8 122.14 C1434.71 81.49, 1392.62 40.86, 1345.72 -3.09 M1480.11 120.42 C1426.56 73.74, 1374.36 25.02, 1344.09 -0.63 M1484.73 109.29 C1441.3 76.77, 1405.82 41.85, 1351.91 -0.91 M1480.08 108.26 C1444.01 73.78, 1404.43 40.15, 1356.27 -1.72 M1481.49 101.67 C1454.49 77.08, 1431.58 51.93, 1365.9 -2.32 M1480.12 99.35 C1450.75 68.66, 1419.54 42.53, 1367.94 0.23 M1478.77 83.81 C1457.31 66.27, 1437.75 45.85, 1375.9 -3.53 M1481.28 88.68 C1454.58 63.46, 1430.5 42.03, 1378.08 -3.01 M1479.08 76.78 C1452.79 46.81, 1416.17 21.63, 1388.97 -0.62 M1479.76 76.9 C1455.07 55.71, 1432.14 32.94, 1390.21 -2.75 M1482.55 68.44 C1455.99 44.24, 1424.31 19.19, 1401.48 -2.63 M1480.04 67.22 C1449.37 39.69, 1419.32 12.59, 1402.21 0.1 M1480.61 55.68 C1456.82 36.42, 1437.88 13.7, 1417.66 -4.67 M1479.98 54.26 C1456.45 33.97, 1430.68 12.85, 1416.26 0.56 M1482.55 47.34 C1465.25 28.22, 1440.02 9.31, 1424.3 -4.26 M1480.72 45.6 C1461.65 28.44, 1443.71 12.74, 1428.91 -0.11 M1482.23 31.83 C1470.22 21.12, 1452.97 12.51, 1437.05 -3.16 M1480.79 35.99 C1470.75 25.8, 1460.01 16.83, 1440.75 -1.68 M1480.35 23.32 C1474.67 17.77, 1472.65 16.92, 1451.13 0.23 M1481.73 24.23 C1475.51 18.11, 1470.59 11.3, 1450.49 -2.62 M1483.21 13.37 C1478.21 6.99, 1467.78 4.63, 1467.85 -2.19 M1482.23 15.34 C1476.99 10.15, 1469.3 2.51, 1464.89 -2.64" stroke="#ced4da" stroke-width="1" fill="none"></path><path d="M0.81 0.58 C563.36 1.38, 1123.94 2.99, 1478.16 0.91 M-0.53 -0.52 C542.32 2.63, 1083.82 2.33, 1476.63 -0.18 M1476.44 -1.59 C1477.12 219.78, 1477.82 438.05, 1475.54 1047.38 M1476.4 0.28 C1478.33 219.99, 1478.18 440.29, 1477.02 1046.24 M1475.39 1046.77 C939.11 1054.86, 397.64 1055.74, -1.3 1045.44 M1477.26 1046.16 C1001.24 1051.38, 525.45 1052.68, -0.05 1047.26 M1.54 1045.97 C4.23 709, 3.83 373.12, -0.51 -1.02 M-0.72 1047.58 C-3.3 748.93, -2.68 452.68, -0.71 0.19" stroke="#000000" stroke-width="2" fill="none"></path></g><g stroke-linecap="round"><g transform="translate(6109.17192295594 3557.703035749285) rotate(0 -0.36061986280947167 59.44397534802579)"><path d="M-0.19 3.02 C2.97 34.98, 1.47 76.99, 2.14 116.06 M0.16 -1.13 C1.95 44.12, -0.79 88.93, -2.86 120.02" stroke="#000000" stroke-width="2" fill="none"></path></g><g transform="translate(6109.17192295594 3557.703035749285) rotate(0 -0.36061986280947167 59.44397534802579)"><path d="M-11.58 94.28 C-7.08 97.11, -5.56 110.13, 0.25 116.08 M-11.24 90.13 C-7.18 101.59, -6.42 112.73, -4.75 120.04" stroke="#000000" stroke-width="2" fill="none"></path></g><g transform="translate(6109.17192295594 3557.703035749285) rotate(0 -0.36061986280947167 59.44397534802579)"><path d="M8.91 95.53 C6.87 98.27, 1.89 110.89, 0.25 116.08 M9.25 91.37 C5.73 102.66, -1.07 113.34, -4.75 120.04" stroke="#000000" stroke-width="2" fill="none"></path></g></g><mask></mask><g transform="translate(7327.493306477865 1645.1944444444418) rotate(0 403.3438415527344 45)"><text x="403.3438415527344" y="0" font-family="Virgil, Segoe UI Emoji" font-size="36px" fill="#000000" text-anchor="middle" style="white-space: pre;" direction="ltr" dominant-baseline="text-before-edge">Os módulos de alto nível não devem depender</text><text x="403.3438415527344" y="45" font-family="Virgil, Segoe UI Emoji" font-size="36px" fill="#000000" text-anchor="middle" style="white-space: pre;" direction="ltr" dominant-baseline="text-before-edge"> diretamente dos módulos de baixo nível.</text></g><g stroke-linecap="round"><g transform="translate(7777.9391056953245 1772.8996039300243) rotate(0 6.0357173429397335 176.4465721723568)"><path d="M1.72 1.62 C2.59 88.07, 1.37 173.23, 11 351.42 M-1.11 0.83 C5.99 75.65, 8.42 152.16, 13.18 352.06" stroke="#000000" stroke-width="2" fill="none"></path></g><g transform="translate(7777.9391056953245 1772.8996039300243) rotate(0 6.0357173429397335 176.4465721723568)"><path d="M4.86 326.65 C7.89 334.07, 3.63 339.49, 9.56 349.09 M0.48 325.43 C4.08 328.63, 5.75 334.43, 12.94 350.09" stroke="#000000" stroke-width="2" fill="none"></path></g><g transform="translate(7777.9391056953245 1772.8996039300243) rotate(0 6.0357173429397335 176.4465721723568)"><path d="M25.38 326.13 C23.4 333.48, 14.15 339.03, 9.56 349.09 M20.99 324.91 C20.15 328.53, 17.37 334.44, 12.94 350.09" stroke="#000000" stroke-width="2" fill="none"></path></g></g><mask></mask><g transform="translate(7031.02466837565 2195.3134920634893) rotate(0 803.6458129882812 90)"><text x="803.6458129882812" y="0" font-family="Virgil, Segoe UI Emoji" font-size="36px" fill="#000000" text-anchor="middle" style="white-space: pre;" direction="ltr" dominant-baseline="text-before-edge">O Dependency Inversion Principle (DIP) é um dos princípios SOLID que defende que uma </text><text x="803.6458129882812" y="45" font-family="Virgil, Segoe UI Emoji" font-size="36px" fill="#000000" text-anchor="middle" style="white-space: pre;" direction="ltr" dominant-baseline="text-before-edge">classe deve depender de abstrações, não de implementações concretas. </text><text x="803.6458129882812" y="90" font-family="Virgil, Segoe UI Emoji" font-size="36px" fill="#000000" text-anchor="middle" style="white-space: pre;" direction="ltr" dominant-baseline="text-before-edge">Para isso, é recomendado o uso de interfaces ou classes abstratas como dependências, </text><text x="803.6458129882812" y="135" font-family="Virgil, Segoe UI Emoji" font-size="36px" fill="#000000" text-anchor="middle" style="white-space: pre;" direction="ltr" dominant-baseline="text-before-edge">em vez de classes concretas.</text></g></svg>